<svg width="183" height="16" viewBox="0 0 183 16" fill="none" xmlns="http://www.w3.org/2000/svg">
<path d="M5.312 4.696C4.384 4.696 3.648 5.048 3.104 5.736C2.56 6.424 2.288 7.32 2.288 8.44C2.288 9.56 2.56 10.472 3.104 11.16C3.648 11.848 4.384 12.184 5.312 12.184C6.336 12.184 7.104 11.672 7.872 10.472L8.72 11.144C7.84 12.568 6.768 13.224 5.312 13.224C4.112 13.224 3.12 12.776 2.336 11.88C1.568 10.968 1.184 9.832 1.184 8.44C1.184 7.048 1.568 5.912 2.336 5.016C3.12 4.104 4.112 3.656 5.312 3.656C6.768 3.656 7.824 4.296 8.72 5.72L7.872 6.408C7.12 5.208 6.336 4.696 5.312 4.696ZM18.0361 5.144H17.7481L16.0681 10.248H14.7081L13.0121 5.144H12.7401V13H11.7001V3.88H13.6841L15.2521 8.808H15.5401L17.2201 3.88H19.0761V13H18.0361V5.144ZM25.2403 12.248C26.8563 12.248 27.7523 11.192 27.7523 9.192V3.88H28.8083V9.304C28.8083 10.504 28.4723 11.464 27.8163 12.168C27.1603 12.872 26.3123 13.224 25.2403 13.224C24.4563 13.224 23.7523 13 23.1283 12.568C22.5043 12.12 22.0883 11.544 21.8803 10.84L22.7923 10.248C23.2403 11.528 24.1043 12.248 25.2403 12.248ZM38.8604 3.88H39.8684V13H38.6204L34.1244 5.496H33.7884V13H32.7804V3.88H34.2844L38.5084 10.952H38.8604V3.88ZM49.4085 13L46.7365 9.224H44.5285V13H43.4725V3.88H46.8165C49.1685 3.88 50.4165 4.824 50.4165 6.552C50.4165 7.944 49.6485 8.808 48.1285 9.112V9.432L50.6725 13H49.4085ZM49.3285 6.552C49.3285 5.416 48.4645 4.856 46.7845 4.856H44.8965L44.5285 5.224V8.248H46.7845C48.4645 8.248 49.3285 7.688 49.3285 6.552ZM60.3886 3.88H61.5726L57.9246 13H56.5806L52.9326 3.88H54.1326L57.0766 11.544H57.4446L60.3886 3.88ZM71.1128 6.296C71.1128 7.08 70.6968 7.704 69.9768 8.024V8.312C70.9208 8.616 71.5288 9.432 71.5288 10.392C71.5288 12.104 70.2968 13 67.9128 13H64.6168V3.88H67.7368C69.9288 3.88 71.1128 4.712 71.1128 6.296ZM67.6888 4.808H66.0408L65.6728 5.176V7.816H67.6888C69.2888 7.816 70.0728 7.32 70.0728 6.296C70.0728 5.288 69.2888 4.808 67.6888 4.808ZM67.8808 8.712H65.6728V11.704L66.0408 12.072H67.8808C69.6088 12.072 70.4888 11.496 70.4888 10.392C70.4888 9.288 69.6088 8.712 67.8808 8.712Z" fill="white"/>
<path d="M125.072 12.216C126.592 12.216 127.6 11.56 127.6 10.52C127.6 9.768 127.136 9.288 126.192 9.08L123.904 8.52C122.128 8.072 121.424 7.384 121.424 6.184C121.424 5.432 121.728 4.824 122.352 4.36C122.976 3.896 123.776 3.656 124.752 3.656C126.144 3.656 127.472 4.152 128.512 5.096L127.824 5.944C126.928 5.064 125.888 4.632 124.688 4.632C123.36 4.632 122.496 5.224 122.496 6.136C122.496 6.824 122.928 7.192 124.096 7.496L126.416 8.072C127.904 8.44 128.672 9.24 128.672 10.456C128.672 11.272 128.336 11.928 127.664 12.456C126.992 12.968 126.128 13.224 125.072 13.224C123.472 13.224 121.92 12.68 120.912 11.8L121.536 10.872C122.496 11.72 123.776 12.216 125.072 12.216ZM139.476 3.88V4.872H136.292L135.924 5.24V13H134.852V5.24L134.484 4.872H131.3V3.88H139.476ZM145.848 12.216C147.336 12.216 148.344 11.176 148.344 9.592V3.88H149.416V9.736C149.416 10.776 149.08 11.608 148.408 12.264C147.752 12.904 146.888 13.224 145.848 13.224C144.808 13.224 143.96 12.904 143.288 12.264C142.632 11.608 142.296 10.776 142.296 9.736V3.88H143.352V9.608C143.352 11.16 144.376 12.216 145.848 12.216ZM160.22 8.44C160.22 9.832 159.772 10.936 158.892 11.768C158.012 12.584 156.828 13 155.308 13H152.908V3.88H155.308C156.828 3.88 158.012 4.296 158.892 5.128C159.772 5.944 160.22 7.048 160.22 8.44ZM155.308 4.84H154.348L153.98 5.208V11.672L154.348 12.04H155.308C157.676 12.04 159.116 10.664 159.116 8.44C159.116 6.216 157.676 4.84 155.308 4.84ZM167.681 4.856L167.313 5.224V11.656L167.681 12.024H170.033V13H163.553V12.024H165.905L166.273 11.656V5.224L165.905 4.856H163.553V3.88H170.033V4.856H167.681ZM177.253 3.656C178.437 3.656 179.397 4.104 180.133 5C180.885 5.896 181.253 7.048 181.253 8.44C181.253 9.832 180.885 10.984 180.133 11.88C179.397 12.776 178.437 13.224 177.253 13.224C176.069 13.224 175.109 12.776 174.357 11.88C173.621 10.984 173.253 9.832 173.253 8.44C173.253 7.048 173.621 5.896 174.357 5C175.109 4.104 176.069 3.656 177.253 3.656ZM177.253 12.216C178.133 12.216 178.837 11.864 179.365 11.176C179.893 10.488 180.149 9.576 180.149 8.44C180.149 7.304 179.893 6.392 179.365 5.704C178.837 5.016 178.133 4.664 177.253 4.664C176.373 4.664 175.669 5.016 175.141 5.72C174.613 6.408 174.357 7.32 174.357 8.44C174.357 9.56 174.613 10.472 175.141 11.176C175.669 11.864 176.373 12.216 177.253 12.216Z" fill="white"/>
</svg>
