<svg width="183" height="10" viewBox="0 0 183 10" fill="none" xmlns="http://www.w3.org/2000/svg">
<path d="M5.264 1.31224C3.552 1.31224 2.48 2.68824 2.48 4.78424C2.48 5.82424 2.736 6.65624 3.232 7.29624C3.728 7.92024 4.416 8.24024 5.264 8.24024C6.24 8.24024 6.992 7.74424 7.76 6.48024L8.864 7.32824C7.952 8.86424 6.832 9.56824 5.28 9.56824C4.064 9.56824 3.056 9.12024 2.256 8.22424C1.472 7.31224 1.072 6.17624 1.072 4.78424C1.072 3.39224 1.472 2.25624 2.256 1.36024C3.056 0.448237 4.064 0.000237465 5.28 0.000237465C6.832 0.000237465 7.952 0.704238 8.864 2.24024L7.76 3.08824C6.976 1.82424 6.24 1.31224 5.264 1.31224ZM17.9241 1.80824H17.6041L16.2761 6.62424H14.4841L13.1721 1.80824H12.8361V9.34424H11.5241V0.224237H14.0361L15.2521 4.91224H15.5561L16.9001 0.224237H19.2361V9.34424H17.9241V1.80824ZM25.3683 8.35224C26.8883 8.35224 27.7043 7.42424 27.6883 5.64824V0.224237H29.0483V5.76024C29.0483 6.91224 28.7123 7.84024 28.0243 8.52824C27.3363 9.21624 26.4563 9.56824 25.3683 9.56824C24.5523 9.56824 23.8163 9.34424 23.1603 8.89624C22.5203 8.44824 22.0883 7.87224 21.8643 7.16824L23.0323 6.40024C23.4323 7.63224 24.2803 8.35224 25.3683 8.35224ZM38.7004 0.224237H39.9644V9.34424H38.4124L34.3484 2.28824H33.9324V9.34424H32.6684V0.224237H34.5244L38.2844 6.81624H38.7004V0.224237ZM49.3445 9.34424L46.7365 5.71224H44.7365V9.34424H43.3925V0.224237H46.9605C49.3125 0.224237 50.6085 1.20024 50.6085 2.97624C50.6085 4.32024 49.8565 5.21624 48.4485 5.55224V5.88824L50.9605 9.34424H49.3445ZM49.2325 2.97624C49.2325 1.96824 48.4485 1.45624 46.9285 1.45624H45.1685L44.7365 1.88824V4.46424H46.9285C48.4485 4.46424 49.2325 3.95224 49.2325 2.97624ZM60.2286 0.224237H61.7166L58.1166 9.34424H56.3886L52.7886 0.224237H54.3086L57.0606 7.56824H57.4766L60.2286 0.224237ZM71.2248 2.70424C71.2248 3.40824 70.8408 4.03224 70.2008 4.35224V4.65624C71.0328 4.97624 71.6248 5.79224 71.6248 6.67224C71.6248 8.41624 70.3768 9.34424 67.9608 9.34424H64.5208V0.224237H67.7848C70.0248 0.224237 71.2248 1.08824 71.2248 2.70424ZM67.7368 1.39224H66.2648L65.8488 1.80824V4.04824H67.7368C69.1608 4.04824 69.8968 3.60024 69.8968 2.70424C69.8968 1.82424 69.1608 1.39224 67.7368 1.39224ZM67.9288 5.16824H65.8488V7.74424L66.2648 8.17624H67.9288C69.5128 8.17624 70.2968 7.68024 70.2968 6.67224C70.2968 5.66424 69.5128 5.16824 67.9288 5.16824Z" fill="white"/>
<path d="M125.04 8.30424C126.432 8.30424 127.36 7.72824 127.36 6.83224C127.36 6.17624 126.976 5.76024 126.096 5.55224L123.856 5.00824C122.064 4.57624 121.328 3.85624 121.328 2.62424C121.328 1.85624 121.648 1.23224 122.288 0.736238C122.944 0.240238 123.776 0.000237465 124.8 0.000237465C126.192 0.000237465 127.472 0.480238 128.56 1.39224L127.712 2.44824C126.832 1.66424 125.792 1.24824 124.704 1.24824C123.44 1.24824 122.672 1.72824 122.672 2.54424C122.672 3.12024 123.024 3.45624 124.128 3.71224L126.368 4.28824C127.904 4.67224 128.704 5.50424 128.704 6.73624C128.704 7.56824 128.368 8.25624 127.68 8.78424C126.992 9.31224 126.112 9.56824 125.04 9.56824C123.36 9.56824 121.76 9.02424 120.784 8.11224L121.584 6.96024C122.496 7.80824 123.76 8.30424 125.04 8.30424ZM139.556 0.224237V1.47224H136.5L136.068 1.88824V9.34424H134.692V1.88824L134.276 1.47224H131.204V0.224237H139.556ZM145.848 8.30424C147.192 8.30424 148.136 7.32824 148.136 5.92024V0.224237H149.48V6.09624C149.48 7.10424 149.128 7.93624 148.44 8.59224C147.752 9.24824 146.888 9.56824 145.848 9.56824C144.808 9.56824 143.928 9.24824 143.24 8.59224C142.552 7.93624 142.216 7.10424 142.216 6.09624V0.224237H143.56V5.92024C143.56 7.32824 144.504 8.30424 145.848 8.30424ZM160.3 4.78424C160.3 6.16024 159.852 7.26424 158.956 8.09624C158.076 8.92824 156.876 9.34424 155.356 9.34424H152.828V0.224237H155.356C156.876 0.224237 158.076 0.640238 158.956 1.47224C159.852 2.30424 160.3 3.40824 160.3 4.78424ZM155.356 1.44024H154.604L154.172 1.85624V7.69624L154.604 8.12824H155.356C157.58 8.12824 158.892 6.84824 158.892 4.78424C158.892 2.72024 157.58 1.44024 155.356 1.44024ZM167.873 1.45624L167.457 1.88824V7.68024L167.873 8.09624H170.065V9.34424H163.521V8.09624H165.697L166.129 7.68024V1.88824L165.697 1.45624H163.521V0.224237H170.065V1.45624H167.873ZM177.253 0.000237465C178.469 0.000237465 179.461 0.448237 180.229 1.34424C180.997 2.24024 181.381 3.39224 181.381 4.78424C181.381 6.17624 180.997 7.31224 180.229 8.22424C179.461 9.12024 178.469 9.56824 177.253 9.56824C176.037 9.56824 175.045 9.12024 174.277 8.22424C173.525 7.31224 173.141 6.17624 173.141 4.78424C173.141 3.39224 173.525 2.24024 174.277 1.34424C175.045 0.448237 176.037 0.000237465 177.253 0.000237465ZM177.253 8.28824C178.933 8.28824 179.973 6.89624 179.973 4.78424C179.973 2.67224 178.917 1.26424 177.253 1.26424C175.589 1.26424 174.549 2.65624 174.549 4.78424C174.549 6.89624 175.589 8.28824 177.253 8.28824Z" fill="white"/>
</svg>
