<svg width="1440" height="780" fill="none" xmlns="http://www.w3.org/2000/svg"><g clip-path="url(#a)"><path opacity=".8" fill="#000" d="M0 0h1440v780H0z"/><path d="M181.312 203.696c-.928 0-1.664.352-2.208 1.04-.544.688-.816 1.584-.816 2.704s.272 2.032.816 2.72c.544.688 1.28 1.024 2.208 1.024 1.024 0 1.792-.512 2.56-1.712l.848.672c-.88 1.424-1.952 2.08-3.408 2.08-1.2 0-2.192-.448-2.976-1.344-.768-.912-1.152-2.048-1.152-3.44s.384-2.528 1.152-3.424c.784-.912 1.776-1.36 2.976-1.36 1.456 0 2.512.64 3.408 2.064l-.848.688c-.752-1.2-1.536-1.712-2.56-1.712zm12.724.448h-.288l-1.68 5.104h-1.36l-1.696-5.104h-.272V212h-1.04v-9.12h1.984l1.568 4.928h.288l1.68-4.928h1.856V212h-1.04v-7.856zm7.204 7.104c1.616 0 2.512-1.056 2.512-3.056v-5.312h1.056v5.424c0 1.2-.336 2.16-.992 2.864-.656.704-1.504 1.056-2.576 1.056a3.63 3.63 0 0 1-2.112-.656c-.624-.448-1.04-1.024-1.248-1.728l.912-.592c.448 1.28 1.312 2 2.448 2zm13.62-8.368h1.008V212h-1.248l-4.496-7.504h-.336V212h-1.008v-9.12h1.504l4.224 7.072h.352v-7.072zm10.549 9.12-2.672-3.776h-2.208V212h-1.056v-9.12h3.344c2.352 0 3.6.944 3.6 2.672 0 1.392-.768 2.256-2.288 2.56v.32l2.544 3.568h-1.264zm-.08-6.448c0-1.136-.864-1.696-2.544-1.696h-1.888l-.368.368v3.024h2.256c1.68 0 2.544-.56 2.544-1.696zm11.06-2.672h1.184l-3.648 9.12h-1.344l-3.648-9.12h1.2l2.944 7.664h.368l2.944-7.664zm10.724 2.416c0 .784-.416 1.408-1.136 1.728v.288c.944.304 1.552 1.12 1.552 2.08 0 1.712-1.232 2.608-3.616 2.608h-3.296v-9.12h3.12c2.192 0 3.376.832 3.376 2.416zm-3.424-1.488h-1.648l-.368.368v2.64h2.016c1.6 0 2.384-.496 2.384-1.52 0-1.008-.784-1.488-2.384-1.488zm.192 3.904h-2.208v2.992l.368.368h1.84c1.728 0 2.608-.576 2.608-1.68s-.88-1.68-2.608-1.68zM301.072 211.216c1.52 0 2.528-.656 2.528-1.696 0-.752-.464-1.232-1.408-1.44l-2.288-.56c-1.776-.448-2.48-1.136-2.48-2.336 0-.752.304-1.36.928-1.824.624-.464 1.424-.704 2.4-.704 1.392 0 2.72.496 3.76 1.44l-.688.848c-.896-.88-1.936-1.312-3.136-1.312-1.328 0-2.192.592-2.192 1.504 0 .688.432 1.056 1.6 1.36l2.32.576c1.488.368 2.256 1.168 2.256 2.384 0 .816-.336 1.472-1.008 2-.672.512-1.536.768-2.592.768-1.6 0-3.152-.544-4.16-1.424l.624-.928a5.4 5.4 0 0 0 3.536 1.344zm14.404-8.336v.992h-3.184l-.368.368V212h-1.072v-7.76l-.368-.368H307.3v-.992h8.176zm6.372 8.336c1.488 0 2.496-1.04 2.496-2.624v-5.712h1.072v5.856c0 1.04-.336 1.872-1.008 2.528-.656.64-1.52.96-2.56.96s-1.888-.32-2.56-.96c-.656-.656-.992-1.488-.992-2.528v-5.856h1.056v5.728c0 1.552 1.024 2.608 2.496 2.608zm14.372-3.776c0 1.392-.448 2.496-1.328 3.328-.88.816-2.064 1.232-3.584 1.232h-2.4v-9.12h2.4c1.52 0 2.704.416 3.584 1.248.88.816 1.328 1.92 1.328 3.312zm-4.912-3.6h-.96l-.368.368v6.464l.368.368h.96c2.368 0 3.808-1.376 3.808-3.6s-1.44-3.6-3.808-3.6zm12.373.016-.368.368v6.432l.368.368h2.352V212h-6.48v-.976h2.352l.368-.368v-6.432l-.368-.368h-2.352v-.976h6.48v.976h-2.352zm9.572-1.2c1.184 0 2.144.448 2.88 1.344.752.896 1.12 2.048 1.12 3.44s-.368 2.544-1.12 3.44c-.736.896-1.696 1.344-2.88 1.344s-2.144-.448-2.896-1.344c-.736-.896-1.104-2.048-1.104-3.44s.368-2.544 1.104-3.44c.752-.896 1.712-1.344 2.896-1.344zm0 8.56c.88 0 1.584-.352 2.112-1.04.528-.688.784-1.6.784-2.736 0-1.136-.256-2.048-.784-2.736-.528-.688-1.232-1.04-2.112-1.04-.88 0-1.584.352-2.112 1.056-.528.688-.784 1.6-.784 2.72s.256 2.032.784 2.736c.528.688 1.232 1.04 2.112 1.04zM491.312 203.696c-.928 0-1.664.352-2.208 1.04-.544.688-.816 1.584-.816 2.704s.272 2.032.816 2.72c.544.688 1.28 1.024 2.208 1.024 1.024 0 1.792-.512 2.56-1.712l.848.672c-.88 1.424-1.952 2.08-3.408 2.08-1.2 0-2.192-.448-2.976-1.344-.768-.912-1.152-2.048-1.152-3.44s.384-2.528 1.152-3.424c.784-.912 1.776-1.36 2.976-1.36 1.456 0 2.512.64 3.408 2.064l-.848.688c-.752-1.2-1.536-1.712-2.56-1.712zm12.724.448h-.288l-1.68 5.104h-1.36l-1.696-5.104h-.272V212h-1.04v-9.12h1.984l1.568 4.928h.288l1.68-4.928h1.856V212h-1.04v-7.856zm7.204 7.104c1.616 0 2.512-1.056 2.512-3.056v-5.312h1.056v5.424c0 1.2-.336 2.16-.992 2.864-.656.704-1.504 1.056-2.576 1.056a3.63 3.63 0 0 1-2.112-.656c-.624-.448-1.04-1.024-1.248-1.728l.912-.592c.448 1.28 1.312 2 2.448 2zm13.62-8.368h1.008V212h-1.248l-4.496-7.504h-.336V212h-1.008v-9.12h1.504l4.224 7.072h.352v-7.072zm10.549 9.12-2.672-3.776h-2.208V212h-1.056v-9.12h3.344c2.352 0 3.6.944 3.6 2.672 0 1.392-.768 2.256-2.288 2.56v.32l2.544 3.568h-1.264zm-.08-6.448c0-1.136-.864-1.696-2.544-1.696h-1.888l-.368.368v3.024h2.256c1.68 0 2.544-.56 2.544-1.696zm11.06-2.672h1.184l-3.648 9.12h-1.344l-3.648-9.12h1.2l2.944 7.664h.368l2.944-7.664zm10.724 2.416c0 .784-.416 1.408-1.136 1.728v.288c.944.304 1.552 1.12 1.552 2.08 0 1.712-1.232 2.608-3.616 2.608h-3.296v-9.12h3.12c2.192 0 3.376.832 3.376 2.416zm-3.424-1.488h-1.648l-.368.368v2.64h2.016c1.6 0 2.384-.496 2.384-1.52 0-1.008-.784-1.488-2.384-1.488zm.192 3.904h-2.208v2.992l.368.368h1.84c1.728 0 2.608-.576 2.608-1.68s-.88-1.68-2.608-1.68zM611.072 211.216c1.52 0 2.528-.656 2.528-1.696 0-.752-.464-1.232-1.408-1.44l-2.288-.56c-1.776-.448-2.48-1.136-2.48-2.336 0-.752.304-1.36.928-1.824.624-.464 1.424-.704 2.4-.704 1.392 0 2.72.496 3.76 1.44l-.688.848c-.896-.88-1.936-1.312-3.136-1.312-1.328 0-2.192.592-2.192 1.504 0 .688.432 1.056 1.6 1.36l2.32.576c1.488.368 2.256 1.168 2.256 2.384 0 .816-.336 1.472-1.008 2-.672.512-1.536.768-2.592.768-1.6 0-3.152-.544-4.16-1.424l.624-.928a5.4 5.4 0 0 0 3.536 1.344zm14.404-8.336v.992h-3.184l-.368.368V212h-1.072v-7.76l-.368-.368H617.3v-.992h8.176zm6.372 8.336c1.488 0 2.496-1.04 2.496-2.624v-5.712h1.072v5.856c0 1.04-.336 1.872-1.008 2.528-.656.64-1.52.96-2.56.96s-1.888-.32-2.56-.96c-.656-.656-.992-1.488-.992-2.528v-5.856h1.056v5.728c0 1.552 1.024 2.608 2.496 2.608zm14.372-3.776c0 1.392-.448 2.496-1.328 3.328-.88.816-2.064 1.232-3.584 1.232h-2.4v-9.12h2.4c1.52 0 2.704.416 3.584 1.248.88.816 1.328 1.92 1.328 3.312zm-4.912-3.6h-.96l-.368.368v6.464l.368.368h.96c2.368 0 3.808-1.376 3.808-3.6s-1.44-3.6-3.808-3.6zm12.373.016-.368.368v6.432l.368.368h2.352V212h-6.48v-.976h2.352l.368-.368v-6.432l-.368-.368h-2.352v-.976h6.48v.976h-2.352zm9.572-1.2c1.184 0 2.144.448 2.88 1.344.752.896 1.12 2.048 1.12 3.44s-.368 2.544-1.12 3.44c-.736.896-1.696 1.344-2.88 1.344s-2.144-.448-2.896-1.344c-.736-.896-1.104-2.048-1.104-3.44s.368-2.544 1.104-3.44c.752-.896 1.712-1.344 2.896-1.344zm0 8.56c.88 0 1.584-.352 2.112-1.04.528-.688.784-1.6.784-2.736 0-1.136-.256-2.048-.784-2.736-.528-.688-1.232-1.04-2.112-1.04-.88 0-1.584.352-2.112 1.056-.528.688-.784 1.6-.784 2.72s.256 2.032.784 2.736c.528.688 1.232 1.04 2.112 1.04zM801.312 203.696c-.928 0-1.664.352-2.208 1.04-.544.688-.816 1.584-.816 2.704s.272 2.032.816 2.72c.544.688 1.28 1.024 2.208 1.024 1.024 0 1.792-.512 2.56-1.712l.848.672c-.88 1.424-1.952 2.08-3.408 2.08-1.2 0-2.192-.448-2.976-1.344-.768-.912-1.152-2.048-1.152-3.44s.384-2.528 1.152-3.424c.784-.912 1.776-1.36 2.976-1.36 1.456 0 2.512.64 3.408 2.064l-.848.688c-.752-1.2-1.536-1.712-2.56-1.712zm12.724.448h-.288l-1.68 5.104h-1.36l-1.696-5.104h-.272V212h-1.04v-9.12h1.984l1.568 4.928h.288l1.68-4.928h1.856V212h-1.04v-7.856zm7.204 7.104c1.616 0 2.512-1.056 2.512-3.056v-5.312h1.056v5.424c0 1.2-.336 2.16-.992 2.864-.656.704-1.504 1.056-2.576 1.056a3.63 3.63 0 0 1-2.112-.656c-.624-.448-1.04-1.024-1.248-1.728l.912-.592c.448 1.28 1.312 2 2.448 2zm13.62-8.368h1.008V212h-1.248l-4.496-7.504h-.336V212h-1.008v-9.12h1.504l4.224 7.072h.352v-7.072zm10.549 9.12-2.672-3.776h-2.208V212h-1.056v-9.12h3.344c2.352 0 3.6.944 3.6 2.672 0 1.392-.768 2.256-2.288 2.56v.32l2.544 3.568h-1.264zm-.08-6.448c0-1.136-.864-1.696-2.544-1.696h-1.888l-.368.368v3.024h2.256c1.68 0 2.544-.56 2.544-1.696zm11.06-2.672h1.184l-3.648 9.12h-1.344l-3.648-9.12h1.2l2.944 7.664h.368l2.944-7.664zm10.724 2.416c0 .784-.416 1.408-1.136 1.728v.288c.944.304 1.552 1.12 1.552 2.08 0 1.712-1.232 2.608-3.616 2.608h-3.296v-9.12h3.12c2.192 0 3.376.832 3.376 2.416zm-3.424-1.488h-1.648l-.368.368v2.64h2.016c1.6 0 2.384-.496 2.384-1.52 0-1.008-.784-1.488-2.384-1.488zm.192 3.904h-2.208v2.992l.368.368h1.84c1.728 0 2.608-.576 2.608-1.68s-.88-1.68-2.608-1.68zM921.072 211.216c1.52 0 2.528-.656 2.528-1.696 0-.752-.464-1.232-1.408-1.44l-2.288-.56c-1.776-.448-2.48-1.136-2.48-2.336 0-.752.304-1.36.928-1.824.624-.464 1.424-.704 2.4-.704 1.392 0 2.72.496 3.76 1.44l-.688.848c-.896-.88-1.936-1.312-3.136-1.312-1.328 0-2.192.592-2.192 1.504 0 .688.432 1.056 1.6 1.36l2.32.576c1.488.368 2.256 1.168 2.256 2.384 0 .816-.336 1.472-1.008 2-.672.512-1.536.768-2.592.768-1.6 0-3.152-.544-4.16-1.424l.624-.928a5.4 5.4 0 0 0 3.536 1.344zm14.404-8.336v.992h-3.184l-.368.368V212h-1.072v-7.76l-.368-.368H927.3v-.992h8.176zm6.372 8.336c1.488 0 2.496-1.04 2.496-2.624v-5.712h1.072v5.856c0 1.04-.336 1.872-1.008 2.528-.656.64-1.52.96-2.56.96s-1.888-.32-2.56-.96c-.656-.656-.992-1.488-.992-2.528v-5.856h1.056v5.728c0 1.552 1.024 2.608 2.496 2.608zm14.372-3.776c0 1.392-.448 2.496-1.328 3.328-.88.816-2.064 1.232-3.584 1.232h-2.4v-9.12h2.4c1.52 0 2.704.416 3.584 1.248.88.816 1.328 1.92 1.328 3.312zm-4.912-3.6h-.96l-.368.368v6.464l.368.368h.96c2.368 0 3.808-1.376 3.808-3.6s-1.44-3.6-3.808-3.6zm12.373.016-.368.368v6.432l.368.368h2.352V212h-6.48v-.976h2.352l.368-.368v-6.432l-.368-.368h-2.352v-.976h6.48v.976h-2.352zm9.572-1.2c1.184 0 2.144.448 2.88 1.344.752.896 1.12 2.048 1.12 3.44s-.368 2.544-1.12 3.44c-.736.896-1.696 1.344-2.88 1.344s-2.144-.448-2.896-1.344c-.736-.896-1.104-2.048-1.104-3.44s.368-2.544 1.104-3.44c.752-.896 1.712-1.344 2.896-1.344zm0 8.56c.88 0 1.584-.352 2.112-1.04.528-.688.784-1.6.784-2.736 0-1.136-.256-2.048-.784-2.736-.528-.688-1.232-1.04-2.112-1.04-.88 0-1.584.352-2.112 1.056-.528.688-.784 1.6-.784 2.72s.256 2.032.784 2.736c.528.688 1.232 1.04 2.112 1.04zM1111.31 203.696c-.93 0-1.66.352-2.21 1.04-.54.688-.81 1.584-.81 2.704s.27 2.032.81 2.72c.55.688 1.28 1.024 2.21 1.024 1.03 0 1.79-.512 2.56-1.712l.85.672c-.88 1.424-1.95 2.08-3.41 2.08-1.2 0-2.19-.448-2.97-1.344-.77-.912-1.16-2.048-1.16-3.44s.39-2.528 1.16-3.424c.78-.912 1.77-1.36 2.97-1.36 1.46 0 2.51.64 3.41 2.064l-.85.688c-.75-1.2-1.53-1.712-2.56-1.712zm12.73.448h-.29l-1.68 5.104h-1.36l-1.7-5.104h-.27V212h-1.04v-9.12h1.98l1.57 4.928h.29l1.68-4.928h1.86V212h-1.04v-7.856zm7.2 7.104c1.62 0 2.51-1.056 2.51-3.056v-5.312h1.06v5.424c0 1.2-.34 2.16-.99 2.864-.66.704-1.51 1.056-2.58 1.056-.78 0-1.49-.224-2.11-.656a3.183 3.183 0 0 1-1.25-1.728l.91-.592c.45 1.28 1.31 2 2.45 2zm13.62-8.368h1.01V212h-1.25l-4.5-7.504h-.33V212h-1.01v-9.12h1.5l4.23 7.072h.35v-7.072zm10.55 9.12-2.67-3.776h-2.21V212h-1.06v-9.12h3.35c2.35 0 3.6.944 3.6 2.672 0 1.392-.77 2.256-2.29 2.56v.32l2.54 3.568h-1.26zm-.08-6.448c0-1.136-.87-1.696-2.55-1.696h-1.88l-.37.368v3.024h2.25c1.68 0 2.55-.56 2.55-1.696zm11.06-2.672h1.18l-3.65 9.12h-1.34l-3.65-9.12h1.2l2.95 7.664h.36l2.95-7.664zm10.72 2.416c0 .784-.41 1.408-1.13 1.728v.288c.94.304 1.55 1.12 1.55 2.08 0 1.712-1.23 2.608-3.62 2.608h-3.29v-9.12h3.12c2.19 0 3.37.832 3.37 2.416zm-3.42-1.488h-1.65l-.37.368v2.64h2.02c1.6 0 2.38-.496 2.38-1.52 0-1.008-.78-1.488-2.38-1.488zm.19 3.904h-2.21v2.992l.37.368h1.84c1.73 0 2.61-.576 2.61-1.68s-.88-1.68-2.61-1.68zM1231.07 211.216c1.52 0 2.53-.656 2.53-1.696 0-.752-.46-1.232-1.41-1.44l-2.29-.56c-1.77-.448-2.48-1.136-2.48-2.336 0-.752.31-1.36.93-1.824.63-.464 1.43-.704 2.4-.704 1.39 0 2.72.496 3.76 1.44l-.69.848c-.89-.88-1.93-1.312-3.13-1.312-1.33 0-2.19.592-2.19 1.504 0 .688.43 1.056 1.6 1.36l2.32.576c1.48.368 2.25 1.168 2.25 2.384 0 .816-.33 1.472-1.01 2-.67.512-1.53.768-2.59.768-1.6 0-3.15-.544-4.16-1.424l.63-.928a5.397 5.397 0 0 0 3.53 1.344zm14.41-8.336v.992h-3.19l-.37.368V212h-1.07v-7.76l-.37-.368h-3.18v-.992h8.18zm6.37 8.336c1.49 0 2.49-1.04 2.49-2.624v-5.712h1.08v5.856c0 1.04-.34 1.872-1.01 2.528-.66.64-1.52.96-2.56.96s-1.89-.32-2.56-.96c-.66-.656-.99-1.488-.99-2.528v-5.856h1.05v5.728c0 1.552 1.03 2.608 2.5 2.608zm14.37-3.776c0 1.392-.45 2.496-1.33 3.328-.88.816-2.06 1.232-3.58 1.232h-2.4v-9.12h2.4c1.52 0 2.7.416 3.58 1.248.88.816 1.33 1.92 1.33 3.312zm-4.91-3.6h-.96l-.37.368v6.464l.37.368h.96c2.37 0 3.81-1.376 3.81-3.6s-1.44-3.6-3.81-3.6zm12.37.016-.37.368v6.432l.37.368h2.35V212h-6.48v-.976h2.35l.37-.368v-6.432l-.37-.368h-2.35v-.976h6.48v.976h-2.35zm9.57-1.2c1.19 0 2.15.448 2.88 1.344.75.896 1.12 2.048 1.12 3.44s-.37 2.544-1.12 3.44c-.73.896-1.69 1.344-2.88 1.344-1.18 0-2.14-.448-2.89-1.344-.74-.896-1.11-2.048-1.11-3.44s.37-2.544 1.11-3.44c.75-.896 1.71-1.344 2.89-1.344zm0 8.56c.88 0 1.59-.352 2.11-1.04.53-.688.79-1.6.79-2.736 0-1.136-.26-2.048-.79-2.736-.52-.688-1.23-1.04-2.11-1.04-.88 0-1.58.352-2.11 1.056-.53.688-.78 1.6-.78 2.72s.25 2.032.78 2.736c.53.688 1.23 1.04 2.11 1.04zM1421.31 203.696c-.93 0-1.66.352-2.21 1.04-.54.688-.81 1.584-.81 2.704s.27 2.032.81 2.72c.55.688 1.28 1.024 2.21 1.024 1.03 0 1.79-.512 2.56-1.712l.85.672c-.88 1.424-1.95 2.08-3.41 2.08-1.2 0-2.19-.448-2.97-1.344-.77-.912-1.16-2.048-1.16-3.44s.39-2.528 1.16-3.424c.78-.912 1.77-1.36 2.97-1.36 1.46 0 2.51.64 3.41 2.064l-.85.688c-.75-1.2-1.53-1.712-2.56-1.712zm12.73.448h-.29l-1.68 5.104h-1.36l-1.7-5.104h-.27V212h-1.04v-9.12h1.98l1.57 4.928h.29l1.68-4.928h1.86V212h-1.04v-7.856zm7.2 7.104c1.62 0 2.51-1.056 2.51-3.056v-5.312h1.06v5.424c0 1.2-.34 2.16-.99 2.864-.66.704-1.51 1.056-2.58 1.056-.78 0-1.49-.224-2.11-.656a3.183 3.183 0 0 1-1.25-1.728l.91-.592c.45 1.28 1.31 2 2.45 2zm13.62-8.368h1.01V212h-1.25l-4.5-7.504h-.33V212h-1.01v-9.12h1.5l4.23 7.072h.35v-7.072zm10.55 9.12-2.67-3.776h-2.21V212h-1.06v-9.12h3.35c2.35 0 3.6.944 3.6 2.672 0 1.392-.77 2.256-2.29 2.56v.32l2.54 3.568h-1.26zm-.08-6.448c0-1.136-.87-1.696-2.55-1.696h-1.88l-.37.368v3.024h2.25c1.68 0 2.55-.56 2.55-1.696zm11.06-2.672h1.18l-3.65 9.12h-1.34l-3.65-9.12h1.2l2.95 7.664h.36l2.95-7.664zm10.72 2.416c0 .784-.41 1.408-1.13 1.728v.288c.94.304 1.55 1.12 1.55 2.08 0 1.712-1.23 2.608-3.62 2.608h-3.29v-9.12h3.12c2.19 0 3.37.832 3.37 2.416zm-3.42-1.488h-1.65l-.37.368v2.64h2.02c1.6 0 2.38-.496 2.38-1.52 0-1.008-.78-1.488-2.38-1.488zm.19 3.904h-2.21v2.992l.37.368h1.84c1.73 0 2.61-.576 2.61-1.68s-.88-1.68-2.61-1.68zM323.312 18.696c-.928 0-1.664.352-2.208 1.04-.544.688-.816 1.584-.816 2.704s.272 2.032.816 2.72c.544.688 1.28 1.024 2.208 1.024 1.024 0 1.792-.512 2.56-1.712l.848.672c-.88 1.424-1.952 2.08-3.408 2.08-1.2 0-2.192-.448-2.976-1.344-.768-.912-1.152-2.048-1.152-3.44s.384-2.528 1.152-3.424c.784-.912 1.776-1.36 2.976-1.36 1.456 0 2.512.64 3.408 2.064l-.848.688c-.752-1.2-1.536-1.712-2.56-1.712zm12.724.448h-.288l-1.68 5.104h-1.36l-1.696-5.104h-.272V27h-1.04v-9.12h1.984l1.568 4.928h.288l1.68-4.928h1.856V27h-1.04v-7.856zm7.204 7.104c1.616 0 2.512-1.056 2.512-3.056V17.88h1.056v5.424c0 1.2-.336 2.16-.992 2.864-.656.704-1.504 1.056-2.576 1.056a3.63 3.63 0 0 1-2.112-.656c-.624-.448-1.04-1.024-1.248-1.728l.912-.592c.448 1.28 1.312 2 2.448 2zm13.62-8.368h1.008V27h-1.248l-4.496-7.504h-.336V27h-1.008v-9.12h1.504l4.224 7.072h.352V17.88zM367.409 27l-2.672-3.776h-2.208V27h-1.056v-9.12h3.344c2.352 0 3.6.944 3.6 2.672 0 1.392-.768 2.256-2.288 2.56v.32L368.673 27h-1.264zm-.08-6.448c0-1.136-.864-1.696-2.544-1.696h-1.888l-.368.368v3.024h2.256c1.68 0 2.544-.56 2.544-1.696zm11.06-2.672h1.184L375.925 27h-1.344l-3.648-9.12h1.2l2.944 7.664h.368l2.944-7.664zm10.724 2.416c0 .784-.416 1.408-1.136 1.728v.288c.944.304 1.552 1.12 1.552 2.08 0 1.712-1.232 2.608-3.616 2.608h-3.296v-9.12h3.12c2.192 0 3.376.832 3.376 2.416zm-3.424-1.488h-1.648l-.368.368v2.64h2.016c1.6 0 2.384-.496 2.384-1.52 0-1.008-.784-1.488-2.384-1.488zm.192 3.904h-2.208v2.992l.368.368h1.84c1.728 0 2.608-.576 2.608-1.68s-.88-1.68-2.608-1.68zM443.072 26.216c1.52 0 2.528-.656 2.528-1.696 0-.752-.464-1.232-1.408-1.44l-2.288-.56c-1.776-.448-2.48-1.136-2.48-2.336 0-.752.304-1.36.928-1.824.624-.464 1.424-.704 2.4-.704 1.392 0 2.72.496 3.76 1.44l-.688.848c-.896-.88-1.936-1.312-3.136-1.312-1.328 0-2.192.592-2.192 1.504 0 .688.432 1.056 1.6 1.36l2.32.576c1.488.368 2.256 1.168 2.256 2.384 0 .816-.336 1.472-1.008 2-.672.512-1.536.768-2.592.768-1.6 0-3.152-.544-4.16-1.424l.624-.928a5.4 5.4 0 0 0 3.536 1.344zm14.404-8.336v.992h-3.184l-.368.368V27h-1.072v-7.76l-.368-.368H449.3v-.992h8.176zm6.372 8.336c1.488 0 2.496-1.04 2.496-2.624V17.88h1.072v5.856c0 1.04-.336 1.872-1.008 2.528-.656.64-1.52.96-2.56.96s-1.888-.32-2.56-.96c-.656-.656-.992-1.488-.992-2.528V17.88h1.056v5.728c0 1.552 1.024 2.608 2.496 2.608zm14.372-3.776c0 1.392-.448 2.496-1.328 3.328-.88.816-2.064 1.232-3.584 1.232h-2.4v-9.12h2.4c1.52 0 2.704.416 3.584 1.248.88.816 1.328 1.92 1.328 3.312zm-4.912-3.6h-.96l-.368.368v6.464l.368.368h.96c2.368 0 3.808-1.376 3.808-3.6s-1.44-3.6-3.808-3.6zm12.373.016-.368.368v6.432l.368.368h2.352V27h-6.48v-.976h2.352l.368-.368v-6.432l-.368-.368h-2.352v-.976h6.48v.976h-2.352zm9.572-1.2c1.184 0 2.144.448 2.88 1.344.752.896 1.12 2.048 1.12 3.44s-.368 2.544-1.12 3.44c-.736.896-1.696 1.344-2.88 1.344s-2.144-.448-2.896-1.344c-.736-.896-1.104-2.048-1.104-3.44s.368-2.544 1.104-3.44c.752-.896 1.712-1.344 2.896-1.344zm0 8.56c.88 0 1.584-.352 2.112-1.04.528-.688.784-1.6.784-2.736 0-1.136-.256-2.048-.784-2.736-.528-.688-1.232-1.04-2.112-1.04-.88 0-1.584.352-2.112 1.056-.528.688-.784 1.6-.784 2.72s.256 2.032.784 2.736c.528.688 1.232 1.04 2.112 1.04zM633.312 18.696c-.928 0-1.664.352-2.208 1.04-.544.688-.816 1.584-.816 2.704s.272 2.032.816 2.72c.544.688 1.28 1.024 2.208 1.024 1.024 0 1.792-.512 2.56-1.712l.848.672c-.88 1.424-1.952 2.08-3.408 2.08-1.2 0-2.192-.448-2.976-1.344-.768-.912-1.152-2.048-1.152-3.44s.384-2.528 1.152-3.424c.784-.912 1.776-1.36 2.976-1.36 1.456 0 2.512.64 3.408 2.064l-.848.688c-.752-1.2-1.536-1.712-2.56-1.712zm12.724.448h-.288l-1.68 5.104h-1.36l-1.696-5.104h-.272V27h-1.04v-9.12h1.984l1.568 4.928h.288l1.68-4.928h1.856V27h-1.04v-7.856zm7.204 7.104c1.616 0 2.512-1.056 2.512-3.056V17.88h1.056v5.424c0 1.2-.336 2.16-.992 2.864-.656.704-1.504 1.056-2.576 1.056a3.63 3.63 0 0 1-2.112-.656c-.624-.448-1.04-1.024-1.248-1.728l.912-.592c.448 1.28 1.312 2 2.448 2zm13.62-8.368h1.008V27h-1.248l-4.496-7.504h-.336V27h-1.008v-9.12h1.504l4.224 7.072h.352V17.88zM677.409 27l-2.672-3.776h-2.208V27h-1.056v-9.12h3.344c2.352 0 3.6.944 3.6 2.672 0 1.392-.768 2.256-2.288 2.56v.32L678.673 27h-1.264zm-.08-6.448c0-1.136-.864-1.696-2.544-1.696h-1.888l-.368.368v3.024h2.256c1.68 0 2.544-.56 2.544-1.696zm11.06-2.672h1.184L685.925 27h-1.344l-3.648-9.12h1.2l2.944 7.664h.368l2.944-7.664zm10.724 2.416c0 .784-.416 1.408-1.136 1.728v.288c.944.304 1.552 1.12 1.552 2.08 0 1.712-1.232 2.608-3.616 2.608h-3.296v-9.12h3.12c2.192 0 3.376.832 3.376 2.416zm-3.424-1.488h-1.648l-.368.368v2.64h2.016c1.6 0 2.384-.496 2.384-1.52 0-1.008-.784-1.488-2.384-1.488zm.192 3.904h-2.208v2.992l.368.368h1.84c1.728 0 2.608-.576 2.608-1.68s-.88-1.68-2.608-1.68zM753.072 26.216c1.52 0 2.528-.656 2.528-1.696 0-.752-.464-1.232-1.408-1.44l-2.288-.56c-1.776-.448-2.48-1.136-2.48-2.336 0-.752.304-1.36.928-1.824.624-.464 1.424-.704 2.4-.704 1.392 0 2.72.496 3.76 1.44l-.688.848c-.896-.88-1.936-1.312-3.136-1.312-1.328 0-2.192.592-2.192 1.504 0 .688.432 1.056 1.6 1.36l2.32.576c1.488.368 2.256 1.168 2.256 2.384 0 .816-.336 1.472-1.008 2-.672.512-1.536.768-2.592.768-1.6 0-3.152-.544-4.16-1.424l.624-.928a5.4 5.4 0 0 0 3.536 1.344zm14.404-8.336v.992h-3.184l-.368.368V27h-1.072v-7.76l-.368-.368H759.3v-.992h8.176zm6.372 8.336c1.488 0 2.496-1.04 2.496-2.624V17.88h1.072v5.856c0 1.04-.336 1.872-1.008 2.528-.656.64-1.52.96-2.56.96s-1.888-.32-2.56-.96c-.656-.656-.992-1.488-.992-2.528V17.88h1.056v5.728c0 1.552 1.024 2.608 2.496 2.608zm14.372-3.776c0 1.392-.448 2.496-1.328 3.328-.88.816-2.064 1.232-3.584 1.232h-2.4v-9.12h2.4c1.52 0 2.704.416 3.584 1.248.88.816 1.328 1.92 1.328 3.312zm-4.912-3.6h-.96l-.368.368v6.464l.368.368h.96c2.368 0 3.808-1.376 3.808-3.6s-1.44-3.6-3.808-3.6zm12.373.016-.368.368v6.432l.368.368h2.352V27h-6.48v-.976h2.352l.368-.368v-6.432l-.368-.368h-2.352v-.976h6.48v.976h-2.352zm9.572-1.2c1.184 0 2.144.448 2.88 1.344.752.896 1.12 2.048 1.12 3.44s-.368 2.544-1.12 3.44c-.736.896-1.696 1.344-2.88 1.344s-2.144-.448-2.896-1.344c-.736-.896-1.104-2.048-1.104-3.44s.368-2.544 1.104-3.44c.752-.896 1.712-1.344 2.896-1.344zm0 8.56c.88 0 1.584-.352 2.112-1.04.528-.688.784-1.6.784-2.736 0-1.136-.256-2.048-.784-2.736-.528-.688-1.232-1.04-2.112-1.04-.88 0-1.584.352-2.112 1.056-.528.688-.784 1.6-.784 2.72s.256 2.032.784 2.736c.528.688 1.232 1.04 2.112 1.04zM943.312 18.696c-.928 0-1.664.352-2.208 1.04-.544.688-.816 1.584-.816 2.704s.272 2.032.816 2.72c.544.688 1.28 1.024 2.208 1.024 1.024 0 1.792-.512 2.56-1.712l.848.672c-.88 1.424-1.952 2.08-3.408 2.08-1.2 0-2.192-.448-2.976-1.344-.768-.912-1.152-2.048-1.152-3.44s.384-2.528 1.152-3.424c.784-.912 1.776-1.36 2.976-1.36 1.456 0 2.512.64 3.408 2.064l-.848.688c-.752-1.2-1.536-1.712-2.56-1.712zm12.724.448h-.288l-1.68 5.104h-1.36l-1.696-5.104h-.272V27h-1.04v-9.12h1.984l1.568 4.928h.288l1.68-4.928h1.856V27h-1.04v-7.856zm7.204 7.104c1.616 0 2.512-1.056 2.512-3.056V17.88h1.056v5.424c0 1.2-.336 2.16-.992 2.864-.656.704-1.504 1.056-2.576 1.056a3.63 3.63 0 0 1-2.112-.656c-.624-.448-1.04-1.024-1.248-1.728l.912-.592c.448 1.28 1.312 2 2.448 2zm13.62-8.368h1.008V27h-1.248l-4.496-7.504h-.336V27h-1.008v-9.12h1.504l4.224 7.072h.352V17.88zM987.409 27l-2.672-3.776h-2.208V27h-1.056v-9.12h3.344c2.352 0 3.6.944 3.6 2.672 0 1.392-.768 2.256-2.288 2.56v.32L988.673 27h-1.264zm-.08-6.448c0-1.136-.864-1.696-2.544-1.696h-1.888l-.368.368v3.024h2.256c1.68 0 2.544-.56 2.544-1.696zm11.06-2.672h1.184L995.925 27h-1.344l-3.648-9.12h1.2l2.944 7.664h.368l2.944-7.664zm10.721 2.416c0 .784-.41 1.408-1.13 1.728v.288c.94.304 1.55 1.12 1.55 2.08 0 1.712-1.23 2.608-3.62 2.608h-3.29v-9.12h3.12c2.19 0 3.37.832 3.37 2.416zm-3.42-1.488h-1.65l-.37.368v2.64h2.02c1.6 0 2.38-.496 2.38-1.52 0-1.008-.78-1.488-2.38-1.488zm.19 3.904h-2.21v2.992l.37.368h1.84c1.73 0 2.61-.576 2.61-1.68s-.88-1.68-2.61-1.68zM1063.07 26.216c1.52 0 2.53-.656 2.53-1.696 0-.752-.46-1.232-1.41-1.44l-2.29-.56c-1.77-.448-2.48-1.136-2.48-2.336 0-.752.31-1.36.93-1.824.63-.464 1.43-.704 2.4-.704 1.39 0 2.72.496 3.76 1.44l-.69.848c-.89-.88-1.93-1.312-3.13-1.312-1.33 0-2.19.592-2.19 1.504 0 .688.43 1.056 1.6 1.36l2.32.576c1.48.368 2.25 1.168 2.25 2.384 0 .816-.33 1.472-1.01 2-.67.512-1.53.768-2.59.768-1.6 0-3.15-.544-4.16-1.424l.63-.928a5.397 5.397 0 0 0 3.53 1.344zm14.41-8.336v.992h-3.19l-.37.368V27h-1.07v-7.76l-.37-.368h-3.18v-.992h8.18zm6.37 8.336c1.49 0 2.49-1.04 2.49-2.624V17.88h1.08v5.856c0 1.04-.34 1.872-1.01 2.528-.66.64-1.52.96-2.56.96s-1.89-.32-2.56-.96c-.66-.656-.99-1.488-.99-2.528V17.88h1.05v5.728c0 1.552 1.03 2.608 2.5 2.608zm14.37-3.776c0 1.392-.45 2.496-1.33 3.328-.88.816-2.06 1.232-3.58 1.232h-2.4v-9.12h2.4c1.52 0 2.7.416 3.58 1.248.88.816 1.33 1.92 1.33 3.312zm-4.91-3.6h-.96l-.37.368v6.464l.37.368h.96c2.37 0 3.81-1.376 3.81-3.6s-1.44-3.6-3.81-3.6zm12.37.016-.37.368v6.432l.37.368h2.35V27h-6.48v-.976h2.35l.37-.368v-6.432l-.37-.368h-2.35v-.976h6.48v.976h-2.35zm9.57-1.2c1.19 0 2.15.448 2.88 1.344.75.896 1.12 2.048 1.12 3.44s-.37 2.544-1.12 3.44c-.73.896-1.69 1.344-2.88 1.344-1.18 0-2.14-.448-2.89-1.344-.74-.896-1.11-2.048-1.11-3.44s.37-2.544 1.11-3.44c.75-.896 1.71-1.344 2.89-1.344zm0 8.56c.88 0 1.59-.352 2.11-1.04.53-.688.79-1.6.79-2.736 0-1.136-.26-2.048-.79-2.736-.52-.688-1.23-1.04-2.11-1.04-.88 0-1.58.352-2.11 1.056-.53.688-.78 1.6-.78 2.72s.25 2.032.78 2.736c.53.688 1.23 1.04 2.11 1.04zM1253.31 18.696c-.93 0-1.66.352-2.21 1.04-.54.688-.81 1.584-.81 2.704s.27 2.032.81 2.72c.55.688 1.28 1.024 2.21 1.024 1.03 0 1.79-.512 2.56-1.712l.85.672c-.88 1.424-1.95 2.08-3.41 2.08-1.2 0-2.19-.448-2.97-1.344-.77-.912-1.16-2.048-1.16-3.44s.39-2.528 1.16-3.424c.78-.912 1.77-1.36 2.97-1.36 1.46 0 2.51.64 3.41 2.064l-.85.688c-.75-1.2-1.53-1.712-2.56-1.712zm12.73.448h-.29l-1.68 5.104h-1.36l-1.7-5.104h-.27V27h-1.04v-9.12h1.98l1.57 4.928h.29l1.68-4.928h1.86V27h-1.04v-7.856zm7.2 7.104c1.62 0 2.51-1.056 2.51-3.056V17.88h1.06v5.424c0 1.2-.34 2.16-.99 2.864-.66.704-1.51 1.056-2.58 1.056-.78 0-1.49-.224-2.11-.656a3.183 3.183 0 0 1-1.25-1.728l.91-.592c.45 1.28 1.31 2 2.45 2zm13.62-8.368h1.01V27h-1.25l-4.5-7.504h-.33V27h-1.01v-9.12h1.5l4.23 7.072h.35V17.88zm10.55 9.12-2.67-3.776h-2.21V27h-1.06v-9.12h3.35c2.35 0 3.6.944 3.6 2.672 0 1.392-.77 2.256-2.29 2.56v.32l2.54 3.568h-1.26zm-.08-6.448c0-1.136-.87-1.696-2.55-1.696h-1.88l-.37.368v3.024h2.25c1.68 0 2.55-.56 2.55-1.696zm11.06-2.672h1.18l-3.65 9.12h-1.34l-3.65-9.12h1.2l2.95 7.664h.36l2.95-7.664zm10.72 2.416c0 .784-.41 1.408-1.13 1.728v.288c.94.304 1.55 1.12 1.55 2.08 0 1.712-1.23 2.608-3.62 2.608h-3.29v-9.12h3.12c2.19 0 3.37.832 3.37 2.416zm-3.42-1.488h-1.65l-.37.368v2.64h2.02c1.6 0 2.38-.496 2.38-1.52 0-1.008-.78-1.488-2.38-1.488zm.19 3.904h-2.21v2.992l.37.368h1.84c1.73 0 2.61-.576 2.61-1.68s-.88-1.68-2.61-1.68zM1373.07 26.216c1.52 0 2.53-.656 2.53-1.696 0-.752-.46-1.232-1.41-1.44l-2.29-.56c-1.77-.448-2.48-1.136-2.48-2.336 0-.752.31-1.36.93-1.824.63-.464 1.43-.704 2.4-.704 1.39 0 2.72.496 3.76 1.44l-.69.848c-.89-.88-1.93-1.312-3.13-1.312-1.33 0-2.19.592-2.19 1.504 0 .688.43 1.056 1.6 1.36l2.32.576c1.48.368 2.25 1.168 2.25 2.384 0 .816-.33 1.472-1.01 2-.67.512-1.53.768-2.59.768-1.6 0-3.15-.544-4.16-1.424l.63-.928a5.397 5.397 0 0 0 3.53 1.344zm14.41-8.336v.992h-3.19l-.37.368V27h-1.07v-7.76l-.37-.368h-3.18v-.992h8.18zm6.37 8.336c1.49 0 2.49-1.04 2.49-2.624V17.88h1.08v5.856c0 1.04-.34 1.872-1.01 2.528-.66.64-1.52.96-2.56.96s-1.89-.32-2.56-.96c-.66-.656-.99-1.488-.99-2.528V17.88h1.05v5.728c0 1.552 1.03 2.608 2.5 2.608zm14.37-3.776c0 1.392-.45 2.496-1.33 3.328-.88.816-2.06 1.232-3.58 1.232h-2.4v-9.12h2.4c1.52 0 2.7.416 3.58 1.248.88.816 1.33 1.92 1.33 3.312zm-4.91-3.6h-.96l-.37.368v6.464l.37.368h.96c2.37 0 3.81-1.376 3.81-3.6s-1.44-3.6-3.81-3.6zm12.37.016-.37.368v6.432l.37.368h2.35V27h-6.48v-.976h2.35l.37-.368v-6.432l-.37-.368h-2.35v-.976h6.48v.976h-2.35zm9.57-1.2c1.19 0 2.15.448 2.88 1.344.75.896 1.12 2.048 1.12 3.44s-.37 2.544-1.12 3.44c-.73.896-1.69 1.344-2.88 1.344-1.18 0-2.14-.448-2.89-1.344-.74-.896-1.11-2.048-1.11-3.44s.37-2.544 1.11-3.44c.75-.896 1.71-1.344 2.89-1.344zm0 8.56c.88 0 1.59-.352 2.11-1.04.53-.688.79-1.6.79-2.736 0-1.136-.26-2.048-.79-2.736-.52-.688-1.23-1.04-2.11-1.04-.88 0-1.58.352-2.11 1.056-.53.688-.78 1.6-.78 2.72s.25 2.032.78 2.736c.53.688 1.23 1.04 2.11 1.04zM13.312 18.696c-.928 0-1.664.352-2.208 1.04-.544.688-.816 1.584-.816 2.704s.272 2.032.816 2.72c.544.688 1.28 1.024 2.208 1.024 1.024 0 1.792-.512 2.56-1.712l.848.672c-.88 1.424-1.952 2.08-3.408 2.08-1.2 0-2.192-.448-2.976-1.344-.768-.912-1.152-2.048-1.152-3.44s.384-2.528 1.152-3.424c.784-.912 1.776-1.36 2.976-1.36 1.456 0 2.512.64 3.408 2.064l-.848.688c-.752-1.2-1.536-1.712-2.56-1.712zm12.724.448h-.288l-1.68 5.104h-1.36l-1.696-5.104h-.272V27H19.7v-9.12h1.984l1.568 4.928h.288l1.68-4.928h1.856V27h-1.04v-7.856zm7.204 7.104c1.616 0 2.512-1.056 2.512-3.056V17.88h1.056v5.424c0 1.2-.336 2.16-.992 2.864-.656.704-1.504 1.056-2.576 1.056a3.63 3.63 0 0 1-2.112-.656c-.624-.448-1.04-1.024-1.248-1.728l.912-.592c.448 1.28 1.312 2 2.448 2zm13.62-8.368h1.008V27H46.62l-4.496-7.504h-.336V27H40.78v-9.12h1.504l4.224 7.072h.352V17.88zM57.408 27l-2.672-3.776H52.53V27h-1.057v-9.12h3.344c2.352 0 3.6.944 3.6 2.672 0 1.392-.767 2.256-2.287 2.56v.32L58.672 27h-1.265zm-.08-6.448c0-1.136-.864-1.696-2.544-1.696h-1.887l-.368.368v3.024h2.255c1.68 0 2.544-.56 2.544-1.696zm11.06-2.672h1.185L65.925 27H64.58l-3.648-9.12h1.2l2.944 7.664h.368l2.944-7.664zm10.725 2.416c0 .784-.416 1.408-1.136 1.728v.288c.944.304 1.552 1.12 1.552 2.08 0 1.712-1.232 2.608-3.616 2.608h-3.296v-9.12h3.12c2.192 0 3.376.832 3.376 2.416zm-3.424-1.488H74.04l-.368.368v2.64h2.016c1.6 0 2.384-.496 2.384-1.52 0-1.008-.784-1.488-2.384-1.488zm.192 3.904h-2.208v2.992l.368.368h1.84c1.728 0 2.608-.576 2.608-1.68s-.88-1.68-2.608-1.68zM133.072 26.216c1.52 0 2.528-.656 2.528-1.696 0-.752-.464-1.232-1.408-1.44l-2.288-.56c-1.776-.448-2.48-1.136-2.48-2.336 0-.752.304-1.36.928-1.824.624-.464 1.424-.704 2.4-.704 1.392 0 2.72.496 3.76 1.44l-.688.848c-.896-.88-1.936-1.312-3.136-1.312-1.328 0-2.192.592-2.192 1.504 0 .688.432 1.056 1.6 1.36l2.32.576c1.488.368 2.256 1.168 2.256 2.384 0 .816-.336 1.472-1.008 2-.672.512-1.536.768-2.592.768-1.6 0-3.152-.544-4.16-1.424l.624-.928a5.4 5.4 0 0 0 3.536 1.344zm14.404-8.336v.992h-3.184l-.368.368V27h-1.072v-7.76l-.368-.368H139.3v-.992h8.176zm6.372 8.336c1.488 0 2.496-1.04 2.496-2.624V17.88h1.072v5.856c0 1.04-.336 1.872-1.008 2.528-.656.64-1.52.96-2.56.96s-1.888-.32-2.56-.96c-.656-.656-.992-1.488-.992-2.528V17.88h1.056v5.728c0 1.552 1.024 2.608 2.496 2.608zm14.372-3.776c0 1.392-.448 2.496-1.328 3.328-.88.816-2.064 1.232-3.584 1.232h-2.4v-9.12h2.4c1.52 0 2.704.416 3.584 1.248.88.816 1.328 1.92 1.328 3.312zm-4.912-3.6h-.96l-.368.368v6.464l.368.368h.96c2.368 0 3.808-1.376 3.808-3.6s-1.44-3.6-3.808-3.6zm12.373.016-.368.368v6.432l.368.368h2.352V27h-6.48v-.976h2.352l.368-.368v-6.432l-.368-.368h-2.352v-.976h6.48v.976h-2.352zm9.572-1.2c1.184 0 2.144.448 2.88 1.344.752.896 1.12 2.048 1.12 3.44s-.368 2.544-1.12 3.44c-.736.896-1.696 1.344-2.88 1.344s-2.144-.448-2.896-1.344c-.736-.896-1.104-2.048-1.104-3.44s.368-2.544 1.104-3.44c.752-.896 1.712-1.344 2.896-1.344zm0 8.56c.88 0 1.584-.352 2.112-1.04.528-.688.784-1.6.784-2.736 0-1.136-.256-2.048-.784-2.736-.528-.688-1.232-1.04-2.112-1.04-.88 0-1.584.352-2.112 1.056-.528.688-.784 1.6-.784 2.72s.256 2.032.784 2.736c.528.688 1.232 1.04 2.112 1.04zM13.312 388.696c-.928 0-1.664.352-2.208 1.04-.544.688-.816 1.584-.816 2.704s.272 2.032.816 2.72c.544.688 1.28 1.024 2.208 1.024 1.024 0 1.792-.512 2.56-1.712l.848.672c-.88 1.424-1.952 2.08-3.408 2.08-1.2 0-2.192-.448-2.976-1.344-.768-.912-1.152-2.048-1.152-3.44s.384-2.528 1.152-3.424c.784-.912 1.776-1.36 2.976-1.36 1.456 0 2.512.64 3.408 2.064l-.848.688c-.752-1.2-1.536-1.712-2.56-1.712zm12.724.448h-.288l-1.68 5.104h-1.36l-1.696-5.104h-.272V397H19.7v-9.12h1.984l1.568 4.928h.288l1.68-4.928h1.856V397h-1.04v-7.856zm7.204 7.104c1.616 0 2.512-1.056 2.512-3.056v-5.312h1.056v5.424c0 1.2-.336 2.16-.992 2.864-.656.704-1.504 1.056-2.576 1.056a3.63 3.63 0 0 1-2.112-.656c-.624-.448-1.04-1.024-1.248-1.728l.912-.592c.448 1.28 1.312 2 2.448 2zm13.62-8.368h1.008V397H46.62l-4.496-7.504h-.336V397H40.78v-9.12h1.504l4.224 7.072h.352v-7.072zM57.408 397l-2.672-3.776H52.53V397h-1.057v-9.12h3.344c2.352 0 3.6.944 3.6 2.672 0 1.392-.767 2.256-2.287 2.56v.32L58.672 397h-1.265zm-.08-6.448c0-1.136-.864-1.696-2.544-1.696h-1.887l-.368.368v3.024h2.255c1.68 0 2.544-.56 2.544-1.696zm11.06-2.672h1.185L65.925 397H64.58l-3.648-9.12h1.2l2.944 7.664h.368l2.944-7.664zm10.725 2.416c0 .784-.416 1.408-1.136 1.728v.288c.944.304 1.552 1.12 1.552 2.08 0 1.712-1.232 2.608-3.616 2.608h-3.296v-9.12h3.12c2.192 0 3.376.832 3.376 2.416zm-3.424-1.488H74.04l-.368.368v2.64h2.016c1.6 0 2.384-.496 2.384-1.52 0-1.008-.784-1.488-2.384-1.488zm.192 3.904h-2.208v2.992l.368.368h1.84c1.728 0 2.608-.576 2.608-1.68s-.88-1.68-2.608-1.68zM133.072 396.216c1.52 0 2.528-.656 2.528-1.696 0-.752-.464-1.232-1.408-1.44l-2.288-.56c-1.776-.448-2.48-1.136-2.48-2.336 0-.752.304-1.36.928-1.824.624-.464 1.424-.704 2.4-.704 1.392 0 2.72.496 3.76 1.44l-.688.848c-.896-.88-1.936-1.312-3.136-1.312-1.328 0-2.192.592-2.192 1.504 0 .688.432 1.056 1.6 1.36l2.32.576c1.488.368 2.256 1.168 2.256 2.384 0 .816-.336 1.472-1.008 2-.672.512-1.536.768-2.592.768-1.6 0-3.152-.544-4.16-1.424l.624-.928a5.4 5.4 0 0 0 3.536 1.344zm14.404-8.336v.992h-3.184l-.368.368V397h-1.072v-7.76l-.368-.368H139.3v-.992h8.176zm6.372 8.336c1.488 0 2.496-1.04 2.496-2.624v-5.712h1.072v5.856c0 1.04-.336 1.872-1.008 2.528-.656.64-1.52.96-2.56.96s-1.888-.32-2.56-.96c-.656-.656-.992-1.488-.992-2.528v-5.856h1.056v5.728c0 1.552 1.024 2.608 2.496 2.608zm14.372-3.776c0 1.392-.448 2.496-1.328 3.328-.88.816-2.064 1.232-3.584 1.232h-2.4v-9.12h2.4c1.52 0 2.704.416 3.584 1.248.88.816 1.328 1.92 1.328 3.312zm-4.912-3.6h-.96l-.368.368v6.464l.368.368h.96c2.368 0 3.808-1.376 3.808-3.6s-1.44-3.6-3.808-3.6zm12.373.016-.368.368v6.432l.368.368h2.352V397h-6.48v-.976h2.352l.368-.368v-6.432l-.368-.368h-2.352v-.976h6.48v.976h-2.352zm9.572-1.2c1.184 0 2.144.448 2.88 1.344.752.896 1.12 2.048 1.12 3.44s-.368 2.544-1.12 3.44c-.736.896-1.696 1.344-2.88 1.344s-2.144-.448-2.896-1.344c-.736-.896-1.104-2.048-1.104-3.44s.368-2.544 1.104-3.44c.752-.896 1.712-1.344 2.896-1.344zm0 8.56c.88 0 1.584-.352 2.112-1.04.528-.688.784-1.6.784-2.736 0-1.136-.256-2.048-.784-2.736-.528-.688-1.232-1.04-2.112-1.04-.88 0-1.584.352-2.112 1.056-.528.688-.784 1.6-.784 2.72s.256 2.032.784 2.736c.528.688 1.232 1.04 2.112 1.04zM323.312 388.696c-.928 0-1.664.352-2.208 1.04-.544.688-.816 1.584-.816 2.704s.272 2.032.816 2.72c.544.688 1.28 1.024 2.208 1.024 1.024 0 1.792-.512 2.56-1.712l.848.672c-.88 1.424-1.952 2.08-3.408 2.08-1.2 0-2.192-.448-2.976-1.344-.768-.912-1.152-2.048-1.152-3.44s.384-2.528 1.152-3.424c.784-.912 1.776-1.36 2.976-1.36 1.456 0 2.512.64 3.408 2.064l-.848.688c-.752-1.2-1.536-1.712-2.56-1.712zm12.724.448h-.288l-1.68 5.104h-1.36l-1.696-5.104h-.272V397h-1.04v-9.12h1.984l1.568 4.928h.288l1.68-4.928h1.856V397h-1.04v-7.856zm7.204 7.104c1.616 0 2.512-1.056 2.512-3.056v-5.312h1.056v5.424c0 1.2-.336 2.16-.992 2.864-.656.704-1.504 1.056-2.576 1.056a3.63 3.63 0 0 1-2.112-.656c-.624-.448-1.04-1.024-1.248-1.728l.912-.592c.448 1.28 1.312 2 2.448 2zm13.62-8.368h1.008V397h-1.248l-4.496-7.504h-.336V397h-1.008v-9.12h1.504l4.224 7.072h.352v-7.072zm10.549 9.12-2.672-3.776h-2.208V397h-1.056v-9.12h3.344c2.352 0 3.6.944 3.6 2.672 0 1.392-.768 2.256-2.288 2.56v.32l2.544 3.568h-1.264zm-.08-6.448c0-1.136-.864-1.696-2.544-1.696h-1.888l-.368.368v3.024h2.256c1.68 0 2.544-.56 2.544-1.696zm11.06-2.672h1.184l-3.648 9.12h-1.344l-3.648-9.12h1.2l2.944 7.664h.368l2.944-7.664zm10.724 2.416c0 .784-.416 1.408-1.136 1.728v.288c.944.304 1.552 1.12 1.552 2.08 0 1.712-1.232 2.608-3.616 2.608h-3.296v-9.12h3.12c2.192 0 3.376.832 3.376 2.416zm-3.424-1.488h-1.648l-.368.368v2.64h2.016c1.6 0 2.384-.496 2.384-1.52 0-1.008-.784-1.488-2.384-1.488zm.192 3.904h-2.208v2.992l.368.368h1.84c1.728 0 2.608-.576 2.608-1.68s-.88-1.68-2.608-1.68zM443.072 396.216c1.52 0 2.528-.656 2.528-1.696 0-.752-.464-1.232-1.408-1.44l-2.288-.56c-1.776-.448-2.48-1.136-2.48-2.336 0-.752.304-1.36.928-1.824.624-.464 1.424-.704 2.4-.704 1.392 0 2.72.496 3.76 1.44l-.688.848c-.896-.88-1.936-1.312-3.136-1.312-1.328 0-2.192.592-2.192 1.504 0 .688.432 1.056 1.6 1.36l2.32.576c1.488.368 2.256 1.168 2.256 2.384 0 .816-.336 1.472-1.008 2-.672.512-1.536.768-2.592.768-1.6 0-3.152-.544-4.16-1.424l.624-.928a5.4 5.4 0 0 0 3.536 1.344zm14.404-8.336v.992h-3.184l-.368.368V397h-1.072v-7.76l-.368-.368H449.3v-.992h8.176zm6.372 8.336c1.488 0 2.496-1.04 2.496-2.624v-5.712h1.072v5.856c0 1.04-.336 1.872-1.008 2.528-.656.64-1.52.96-2.56.96s-1.888-.32-2.56-.96c-.656-.656-.992-1.488-.992-2.528v-5.856h1.056v5.728c0 1.552 1.024 2.608 2.496 2.608zm14.372-3.776c0 1.392-.448 2.496-1.328 3.328-.88.816-2.064 1.232-3.584 1.232h-2.4v-9.12h2.4c1.52 0 2.704.416 3.584 1.248.88.816 1.328 1.92 1.328 3.312zm-4.912-3.6h-.96l-.368.368v6.464l.368.368h.96c2.368 0 3.808-1.376 3.808-3.6s-1.44-3.6-3.808-3.6zm12.373.016-.368.368v6.432l.368.368h2.352V397h-6.48v-.976h2.352l.368-.368v-6.432l-.368-.368h-2.352v-.976h6.48v.976h-2.352zm9.572-1.2c1.184 0 2.144.448 2.88 1.344.752.896 1.12 2.048 1.12 3.44s-.368 2.544-1.12 3.44c-.736.896-1.696 1.344-2.88 1.344s-2.144-.448-2.896-1.344c-.736-.896-1.104-2.048-1.104-3.44s.368-2.544 1.104-3.44c.752-.896 1.712-1.344 2.896-1.344zm0 8.56c.88 0 1.584-.352 2.112-1.04.528-.688.784-1.6.784-2.736 0-1.136-.256-2.048-.784-2.736-.528-.688-1.232-1.04-2.112-1.04-.88 0-1.584.352-2.112 1.056-.528.688-.784 1.6-.784 2.72s.256 2.032.784 2.736c.528.688 1.232 1.04 2.112 1.04zM633.312 388.696c-.928 0-1.664.352-2.208 1.04-.544.688-.816 1.584-.816 2.704s.272 2.032.816 2.72c.544.688 1.28 1.024 2.208 1.024 1.024 0 1.792-.512 2.56-1.712l.848.672c-.88 1.424-1.952 2.08-3.408 2.08-1.2 0-2.192-.448-2.976-1.344-.768-.912-1.152-2.048-1.152-3.44s.384-2.528 1.152-3.424c.784-.912 1.776-1.36 2.976-1.36 1.456 0 2.512.64 3.408 2.064l-.848.688c-.752-1.2-1.536-1.712-2.56-1.712zm12.724.448h-.288l-1.68 5.104h-1.36l-1.696-5.104h-.272V397h-1.04v-9.12h1.984l1.568 4.928h.288l1.68-4.928h1.856V397h-1.04v-7.856zm7.204 7.104c1.616 0 2.512-1.056 2.512-3.056v-5.312h1.056v5.424c0 1.2-.336 2.16-.992 2.864-.656.704-1.504 1.056-2.576 1.056a3.63 3.63 0 0 1-2.112-.656c-.624-.448-1.04-1.024-1.248-1.728l.912-.592c.448 1.28 1.312 2 2.448 2zm13.62-8.368h1.008V397h-1.248l-4.496-7.504h-.336V397h-1.008v-9.12h1.504l4.224 7.072h.352v-7.072zm10.549 9.12-2.672-3.776h-2.208V397h-1.056v-9.12h3.344c2.352 0 3.6.944 3.6 2.672 0 1.392-.768 2.256-2.288 2.56v.32l2.544 3.568h-1.264zm-.08-6.448c0-1.136-.864-1.696-2.544-1.696h-1.888l-.368.368v3.024h2.256c1.68 0 2.544-.56 2.544-1.696zm11.06-2.672h1.184l-3.648 9.12h-1.344l-3.648-9.12h1.2l2.944 7.664h.368l2.944-7.664zm10.724 2.416c0 .784-.416 1.408-1.136 1.728v.288c.944.304 1.552 1.12 1.552 2.08 0 1.712-1.232 2.608-3.616 2.608h-3.296v-9.12h3.12c2.192 0 3.376.832 3.376 2.416zm-3.424-1.488h-1.648l-.368.368v2.64h2.016c1.6 0 2.384-.496 2.384-1.52 0-1.008-.784-1.488-2.384-1.488zm.192 3.904h-2.208v2.992l.368.368h1.84c1.728 0 2.608-.576 2.608-1.68s-.88-1.68-2.608-1.68zM753.072 396.216c1.52 0 2.528-.656 2.528-1.696 0-.752-.464-1.232-1.408-1.44l-2.288-.56c-1.776-.448-2.48-1.136-2.48-2.336 0-.752.304-1.36.928-1.824.624-.464 1.424-.704 2.4-.704 1.392 0 2.72.496 3.76 1.44l-.688.848c-.896-.88-1.936-1.312-3.136-1.312-1.328 0-2.192.592-2.192 1.504 0 .688.432 1.056 1.6 1.36l2.32.576c1.488.368 2.256 1.168 2.256 2.384 0 .816-.336 1.472-1.008 2-.672.512-1.536.768-2.592.768-1.6 0-3.152-.544-4.16-1.424l.624-.928a5.4 5.4 0 0 0 3.536 1.344zm14.404-8.336v.992h-3.184l-.368.368V397h-1.072v-7.76l-.368-.368H759.3v-.992h8.176zm6.372 8.336c1.488 0 2.496-1.04 2.496-2.624v-5.712h1.072v5.856c0 1.04-.336 1.872-1.008 2.528-.656.64-1.52.96-2.56.96s-1.888-.32-2.56-.96c-.656-.656-.992-1.488-.992-2.528v-5.856h1.056v5.728c0 1.552 1.024 2.608 2.496 2.608zm14.372-3.776c0 1.392-.448 2.496-1.328 3.328-.88.816-2.064 1.232-3.584 1.232h-2.4v-9.12h2.4c1.52 0 2.704.416 3.584 1.248.88.816 1.328 1.92 1.328 3.312zm-4.912-3.6h-.96l-.368.368v6.464l.368.368h.96c2.368 0 3.808-1.376 3.808-3.6s-1.44-3.6-3.808-3.6zm12.373.016-.368.368v6.432l.368.368h2.352V397h-6.48v-.976h2.352l.368-.368v-6.432l-.368-.368h-2.352v-.976h6.48v.976h-2.352zm9.572-1.2c1.184 0 2.144.448 2.88 1.344.752.896 1.12 2.048 1.12 3.44s-.368 2.544-1.12 3.44c-.736.896-1.696 1.344-2.88 1.344s-2.144-.448-2.896-1.344c-.736-.896-1.104-2.048-1.104-3.44s.368-2.544 1.104-3.44c.752-.896 1.712-1.344 2.896-1.344zm0 8.56c.88 0 1.584-.352 2.112-1.04.528-.688.784-1.6.784-2.736 0-1.136-.256-2.048-.784-2.736-.528-.688-1.232-1.04-2.112-1.04-.88 0-1.584.352-2.112 1.056-.528.688-.784 1.6-.784 2.72s.256 2.032.784 2.736c.528.688 1.232 1.04 2.112 1.04zM943.312 388.696c-.928 0-1.664.352-2.208 1.04-.544.688-.816 1.584-.816 2.704s.272 2.032.816 2.72c.544.688 1.28 1.024 2.208 1.024 1.024 0 1.792-.512 2.56-1.712l.848.672c-.88 1.424-1.952 2.08-3.408 2.08-1.2 0-2.192-.448-2.976-1.344-.768-.912-1.152-2.048-1.152-3.44s.384-2.528 1.152-3.424c.784-.912 1.776-1.36 2.976-1.36 1.456 0 2.512.64 3.408 2.064l-.848.688c-.752-1.2-1.536-1.712-2.56-1.712zm12.724.448h-.288l-1.68 5.104h-1.36l-1.696-5.104h-.272V397h-1.04v-9.12h1.984l1.568 4.928h.288l1.68-4.928h1.856V397h-1.04v-7.856zm7.204 7.104c1.616 0 2.512-1.056 2.512-3.056v-5.312h1.056v5.424c0 1.2-.336 2.16-.992 2.864-.656.704-1.504 1.056-2.576 1.056a3.63 3.63 0 0 1-2.112-.656c-.624-.448-1.04-1.024-1.248-1.728l.912-.592c.448 1.28 1.312 2 2.448 2zm13.62-8.368h1.008V397h-1.248l-4.496-7.504h-.336V397h-1.008v-9.12h1.504l4.224 7.072h.352v-7.072zm10.549 9.12-2.672-3.776h-2.208V397h-1.056v-9.12h3.344c2.352 0 3.6.944 3.6 2.672 0 1.392-.768 2.256-2.288 2.56v.32l2.544 3.568h-1.264zm-.08-6.448c0-1.136-.864-1.696-2.544-1.696h-1.888l-.368.368v3.024h2.256c1.68 0 2.544-.56 2.544-1.696zm11.06-2.672h1.184l-3.648 9.12h-1.344l-3.648-9.12h1.2l2.944 7.664h.368l2.944-7.664zm10.721 2.416c0 .784-.41 1.408-1.13 1.728v.288c.94.304 1.55 1.12 1.55 2.08 0 1.712-1.23 2.608-3.62 2.608h-3.29v-9.12h3.12c2.19 0 3.37.832 3.37 2.416zm-3.42-1.488h-1.65l-.37.368v2.64h2.02c1.6 0 2.38-.496 2.38-1.52 0-1.008-.78-1.488-2.38-1.488zm.19 3.904h-2.21v2.992l.37.368h1.84c1.73 0 2.61-.576 2.61-1.68s-.88-1.68-2.61-1.68zM1063.07 396.216c1.52 0 2.53-.656 2.53-1.696 0-.752-.46-1.232-1.41-1.44l-2.29-.56c-1.77-.448-2.48-1.136-2.48-2.336 0-.752.31-1.36.93-1.824.63-.464 1.43-.704 2.4-.704 1.39 0 2.72.496 3.76 1.44l-.69.848c-.89-.88-1.93-1.312-3.13-1.312-1.33 0-2.19.592-2.19 1.504 0 .688.43 1.056 1.6 1.36l2.32.576c1.48.368 2.25 1.168 2.25 2.384 0 .816-.33 1.472-1.01 2-.67.512-1.53.768-2.59.768-1.6 0-3.15-.544-4.16-1.424l.63-.928a5.397 5.397 0 0 0 3.53 1.344zm14.41-8.336v.992h-3.19l-.37.368V397h-1.07v-7.76l-.37-.368h-3.18v-.992h8.18zm6.37 8.336c1.49 0 2.49-1.04 2.49-2.624v-5.712h1.08v5.856c0 1.04-.34 1.872-1.01 2.528-.66.64-1.52.96-2.56.96s-1.89-.32-2.56-.96c-.66-.656-.99-1.488-.99-2.528v-5.856h1.05v5.728c0 1.552 1.03 2.608 2.5 2.608zm14.37-3.776c0 1.392-.45 2.496-1.33 3.328-.88.816-2.06 1.232-3.58 1.232h-2.4v-9.12h2.4c1.52 0 2.7.416 3.58 1.248.88.816 1.33 1.92 1.33 3.312zm-4.91-3.6h-.96l-.37.368v6.464l.37.368h.96c2.37 0 3.81-1.376 3.81-3.6s-1.44-3.6-3.81-3.6zm12.37.016-.37.368v6.432l.37.368h2.35V397h-6.48v-.976h2.35l.37-.368v-6.432l-.37-.368h-2.35v-.976h6.48v.976h-2.35zm9.57-1.2c1.19 0 2.15.448 2.88 1.344.75.896 1.12 2.048 1.12 3.44s-.37 2.544-1.12 3.44c-.73.896-1.69 1.344-2.88 1.344-1.18 0-2.14-.448-2.89-1.344-.74-.896-1.11-2.048-1.11-3.44s.37-2.544 1.11-3.44c.75-.896 1.71-1.344 2.89-1.344zm0 8.56c.88 0 1.59-.352 2.11-1.04.53-.688.79-1.6.79-2.736 0-1.136-.26-2.048-.79-2.736-.52-.688-1.23-1.04-2.11-1.04-.88 0-1.58.352-2.11 1.056-.53.688-.78 1.6-.78 2.72s.25 2.032.78 2.736c.53.688 1.23 1.04 2.11 1.04zM1253.31 388.696c-.93 0-1.66.352-2.21 1.04-.54.688-.81 1.584-.81 2.704s.27 2.032.81 2.72c.55.688 1.28 1.024 2.21 1.024 1.03 0 1.79-.512 2.56-1.712l.85.672c-.88 1.424-1.95 2.08-3.41 2.08-1.2 0-2.19-.448-2.97-1.344-.77-.912-1.16-2.048-1.16-3.44s.39-2.528 1.16-3.424c.78-.912 1.77-1.36 2.97-1.36 1.46 0 2.51.64 3.41 2.064l-.85.688c-.75-1.2-1.53-1.712-2.56-1.712zm12.73.448h-.29l-1.68 5.104h-1.36l-1.7-5.104h-.27V397h-1.04v-9.12h1.98l1.57 4.928h.29l1.68-4.928h1.86V397h-1.04v-7.856zm7.2 7.104c1.62 0 2.51-1.056 2.51-3.056v-5.312h1.06v5.424c0 1.2-.34 2.16-.99 2.864-.66.704-1.51 1.056-2.58 1.056-.78 0-1.49-.224-2.11-.656a3.183 3.183 0 0 1-1.25-1.728l.91-.592c.45 1.28 1.31 2 2.45 2zm13.62-8.368h1.01V397h-1.25l-4.5-7.504h-.33V397h-1.01v-9.12h1.5l4.23 7.072h.35v-7.072zm10.55 9.12-2.67-3.776h-2.21V397h-1.06v-9.12h3.35c2.35 0 3.6.944 3.6 2.672 0 1.392-.77 2.256-2.29 2.56v.32l2.54 3.568h-1.26zm-.08-6.448c0-1.136-.87-1.696-2.55-1.696h-1.88l-.37.368v3.024h2.25c1.68 0 2.55-.56 2.55-1.696zm11.06-2.672h1.18l-3.65 9.12h-1.34l-3.65-9.12h1.2l2.95 7.664h.36l2.95-7.664zm10.72 2.416c0 .784-.41 1.408-1.13 1.728v.288c.94.304 1.55 1.12 1.55 2.08 0 1.712-1.23 2.608-3.62 2.608h-3.29v-9.12h3.12c2.19 0 3.37.832 3.37 2.416zm-3.42-1.488h-1.65l-.37.368v2.64h2.02c1.6 0 2.38-.496 2.38-1.52 0-1.008-.78-1.488-2.38-1.488zm.19 3.904h-2.21v2.992l.37.368h1.84c1.73 0 2.61-.576 2.61-1.68s-.88-1.68-2.61-1.68zM1373.07 396.216c1.52 0 2.53-.656 2.53-1.696 0-.752-.46-1.232-1.41-1.44l-2.29-.56c-1.77-.448-2.48-1.136-2.48-2.336 0-.752.31-1.36.93-1.824.63-.464 1.43-.704 2.4-.704 1.39 0 2.72.496 3.76 1.44l-.69.848c-.89-.88-1.93-1.312-3.13-1.312-1.33 0-2.19.592-2.19 1.504 0 .688.43 1.056 1.6 1.36l2.32.576c1.48.368 2.25 1.168 2.25 2.384 0 .816-.33 1.472-1.01 2-.67.512-1.53.768-2.59.768-1.6 0-3.15-.544-4.16-1.424l.63-.928a5.397 5.397 0 0 0 3.53 1.344zm14.41-8.336v.992h-3.19l-.37.368V397h-1.07v-7.76l-.37-.368h-3.18v-.992h8.18zm6.37 8.336c1.49 0 2.49-1.04 2.49-2.624v-5.712h1.08v5.856c0 1.04-.34 1.872-1.01 2.528-.66.64-1.52.96-2.56.96s-1.89-.32-2.56-.96c-.66-.656-.99-1.488-.99-2.528v-5.856h1.05v5.728c0 1.552 1.03 2.608 2.5 2.608zm14.37-3.776c0 1.392-.45 2.496-1.33 3.328-.88.816-2.06 1.232-3.58 1.232h-2.4v-9.12h2.4c1.52 0 2.7.416 3.58 1.248.88.816 1.33 1.92 1.33 3.312zm-4.91-3.6h-.96l-.37.368v6.464l.37.368h.96c2.37 0 3.81-1.376 3.81-3.6s-1.44-3.6-3.81-3.6zm12.37.016-.37.368v6.432l.37.368h2.35V397h-6.48v-.976h2.35l.37-.368v-6.432l-.37-.368h-2.35v-.976h6.48v.976h-2.35zm9.57-1.2c1.19 0 2.15.448 2.88 1.344.75.896 1.12 2.048 1.12 3.44s-.37 2.544-1.12 3.44c-.73.896-1.69 1.344-2.88 1.344-1.18 0-2.14-.448-2.89-1.344-.74-.896-1.11-2.048-1.11-3.44s.37-2.544 1.11-3.44c.75-.896 1.71-1.344 2.89-1.344zm0 8.56c.88 0 1.59-.352 2.11-1.04.53-.688.79-1.6.79-2.736 0-1.136-.26-2.048-.79-2.736-.52-.688-1.23-1.04-2.11-1.04-.88 0-1.58.352-2.11 1.056-.53.688-.78 1.6-.78 2.72s.25 2.032.78 2.736c.53.688 1.23 1.04 2.11 1.04zM181.312 573.696c-.928 0-1.664.352-2.208 1.04-.544.688-.816 1.584-.816 2.704s.272 2.032.816 2.72c.544.688 1.28 1.024 2.208 1.024 1.024 0 1.792-.512 2.56-1.712l.848.672c-.88 1.424-1.952 2.08-3.408 2.08-1.2 0-2.192-.448-2.976-1.344-.768-.912-1.152-2.048-1.152-3.44s.384-2.528 1.152-3.424c.784-.912 1.776-1.36 2.976-1.36 1.456 0 2.512.64 3.408 2.064l-.848.688c-.752-1.2-1.536-1.712-2.56-1.712zm12.724.448h-.288l-1.68 5.104h-1.36l-1.696-5.104h-.272V582h-1.04v-9.12h1.984l1.568 4.928h.288l1.68-4.928h1.856V582h-1.04v-7.856zm7.204 7.104c1.616 0 2.512-1.056 2.512-3.056v-5.312h1.056v5.424c0 1.2-.336 2.16-.992 2.864-.656.704-1.504 1.056-2.576 1.056a3.63 3.63 0 0 1-2.112-.656c-.624-.448-1.04-1.024-1.248-1.728l.912-.592c.448 1.28 1.312 2 2.448 2zm13.62-8.368h1.008V582h-1.248l-4.496-7.504h-.336V582h-1.008v-9.12h1.504l4.224 7.072h.352v-7.072zm10.549 9.12-2.672-3.776h-2.208V582h-1.056v-9.12h3.344c2.352 0 3.6.944 3.6 2.672 0 1.392-.768 2.256-2.288 2.56v.32l2.544 3.568h-1.264zm-.08-6.448c0-1.136-.864-1.696-2.544-1.696h-1.888l-.368.368v3.024h2.256c1.68 0 2.544-.56 2.544-1.696zm11.06-2.672h1.184l-3.648 9.12h-1.344l-3.648-9.12h1.2l2.944 7.664h.368l2.944-7.664zm10.724 2.416c0 .784-.416 1.408-1.136 1.728v.288c.944.304 1.552 1.12 1.552 2.08 0 1.712-1.232 2.608-3.616 2.608h-3.296v-9.12h3.12c2.192 0 3.376.832 3.376 2.416zm-3.424-1.488h-1.648l-.368.368v2.64h2.016c1.6 0 2.384-.496 2.384-1.52 0-1.008-.784-1.488-2.384-1.488zm.192 3.904h-2.208v2.992l.368.368h1.84c1.728 0 2.608-.576 2.608-1.68s-.88-1.68-2.608-1.68zM301.072 581.216c1.52 0 2.528-.656 2.528-1.696 0-.752-.464-1.232-1.408-1.44l-2.288-.56c-1.776-.448-2.48-1.136-2.48-2.336 0-.752.304-1.36.928-1.824.624-.464 1.424-.704 2.4-.704 1.392 0 2.72.496 3.76 1.44l-.688.848c-.896-.88-1.936-1.312-3.136-1.312-1.328 0-2.192.592-2.192 1.504 0 .688.432 1.056 1.6 1.36l2.32.576c1.488.368 2.256 1.168 2.256 2.384 0 .816-.336 1.472-1.008 2-.672.512-1.536.768-2.592.768-1.6 0-3.152-.544-4.16-1.424l.624-.928a5.4 5.4 0 0 0 3.536 1.344zm14.404-8.336v.992h-3.184l-.368.368V582h-1.072v-7.76l-.368-.368H307.3v-.992h8.176zm6.372 8.336c1.488 0 2.496-1.04 2.496-2.624v-5.712h1.072v5.856c0 1.04-.336 1.872-1.008 2.528-.656.64-1.52.96-2.56.96s-1.888-.32-2.56-.96c-.656-.656-.992-1.488-.992-2.528v-5.856h1.056v5.728c0 1.552 1.024 2.608 2.496 2.608zm14.372-3.776c0 1.392-.448 2.496-1.328 3.328-.88.816-2.064 1.232-3.584 1.232h-2.4v-9.12h2.4c1.52 0 2.704.416 3.584 1.248.88.816 1.328 1.92 1.328 3.312zm-4.912-3.6h-.96l-.368.368v6.464l.368.368h.96c2.368 0 3.808-1.376 3.808-3.6s-1.44-3.6-3.808-3.6zm12.373.016-.368.368v6.432l.368.368h2.352V582h-6.48v-.976h2.352l.368-.368v-6.432l-.368-.368h-2.352v-.976h6.48v.976h-2.352zm9.572-1.2c1.184 0 2.144.448 2.88 1.344.752.896 1.12 2.048 1.12 3.44s-.368 2.544-1.12 3.44c-.736.896-1.696 1.344-2.88 1.344s-2.144-.448-2.896-1.344c-.736-.896-1.104-2.048-1.104-3.44s.368-2.544 1.104-3.44c.752-.896 1.712-1.344 2.896-1.344zm0 8.56c.88 0 1.584-.352 2.112-1.04.528-.688.784-1.6.784-2.736 0-1.136-.256-2.048-.784-2.736-.528-.688-1.232-1.04-2.112-1.04-.88 0-1.584.352-2.112 1.056-.528.688-.784 1.6-.784 2.72s.256 2.032.784 2.736c.528.688 1.232 1.04 2.112 1.04zM491.312 573.696c-.928 0-1.664.352-2.208 1.04-.544.688-.816 1.584-.816 2.704s.272 2.032.816 2.72c.544.688 1.28 1.024 2.208 1.024 1.024 0 1.792-.512 2.56-1.712l.848.672c-.88 1.424-1.952 2.08-3.408 2.08-1.2 0-2.192-.448-2.976-1.344-.768-.912-1.152-2.048-1.152-3.44s.384-2.528 1.152-3.424c.784-.912 1.776-1.36 2.976-1.36 1.456 0 2.512.64 3.408 2.064l-.848.688c-.752-1.2-1.536-1.712-2.56-1.712zm12.724.448h-.288l-1.68 5.104h-1.36l-1.696-5.104h-.272V582h-1.04v-9.12h1.984l1.568 4.928h.288l1.68-4.928h1.856V582h-1.04v-7.856zm7.204 7.104c1.616 0 2.512-1.056 2.512-3.056v-5.312h1.056v5.424c0 1.2-.336 2.16-.992 2.864-.656.704-1.504 1.056-2.576 1.056a3.63 3.63 0 0 1-2.112-.656c-.624-.448-1.04-1.024-1.248-1.728l.912-.592c.448 1.28 1.312 2 2.448 2zm13.62-8.368h1.008V582h-1.248l-4.496-7.504h-.336V582h-1.008v-9.12h1.504l4.224 7.072h.352v-7.072zm10.549 9.12-2.672-3.776h-2.208V582h-1.056v-9.12h3.344c2.352 0 3.6.944 3.6 2.672 0 1.392-.768 2.256-2.288 2.56v.32l2.544 3.568h-1.264zm-.08-6.448c0-1.136-.864-1.696-2.544-1.696h-1.888l-.368.368v3.024h2.256c1.68 0 2.544-.56 2.544-1.696zm11.06-2.672h1.184l-3.648 9.12h-1.344l-3.648-9.12h1.2l2.944 7.664h.368l2.944-7.664zm10.724 2.416c0 .784-.416 1.408-1.136 1.728v.288c.944.304 1.552 1.12 1.552 2.08 0 1.712-1.232 2.608-3.616 2.608h-3.296v-9.12h3.12c2.192 0 3.376.832 3.376 2.416zm-3.424-1.488h-1.648l-.368.368v2.64h2.016c1.6 0 2.384-.496 2.384-1.52 0-1.008-.784-1.488-2.384-1.488zm.192 3.904h-2.208v2.992l.368.368h1.84c1.728 0 2.608-.576 2.608-1.68s-.88-1.68-2.608-1.68zM611.072 581.216c1.52 0 2.528-.656 2.528-1.696 0-.752-.464-1.232-1.408-1.44l-2.288-.56c-1.776-.448-2.48-1.136-2.48-2.336 0-.752.304-1.36.928-1.824.624-.464 1.424-.704 2.4-.704 1.392 0 2.72.496 3.76 1.44l-.688.848c-.896-.88-1.936-1.312-3.136-1.312-1.328 0-2.192.592-2.192 1.504 0 .688.432 1.056 1.6 1.36l2.32.576c1.488.368 2.256 1.168 2.256 2.384 0 .816-.336 1.472-1.008 2-.672.512-1.536.768-2.592.768-1.6 0-3.152-.544-4.16-1.424l.624-.928a5.4 5.4 0 0 0 3.536 1.344zm14.404-8.336v.992h-3.184l-.368.368V582h-1.072v-7.76l-.368-.368H617.3v-.992h8.176zm6.372 8.336c1.488 0 2.496-1.04 2.496-2.624v-5.712h1.072v5.856c0 1.04-.336 1.872-1.008 2.528-.656.64-1.52.96-2.56.96s-1.888-.32-2.56-.96c-.656-.656-.992-1.488-.992-2.528v-5.856h1.056v5.728c0 1.552 1.024 2.608 2.496 2.608zm14.372-3.776c0 1.392-.448 2.496-1.328 3.328-.88.816-2.064 1.232-3.584 1.232h-2.4v-9.12h2.4c1.52 0 2.704.416 3.584 1.248.88.816 1.328 1.92 1.328 3.312zm-4.912-3.6h-.96l-.368.368v6.464l.368.368h.96c2.368 0 3.808-1.376 3.808-3.6s-1.44-3.6-3.808-3.6zm12.373.016-.368.368v6.432l.368.368h2.352V582h-6.48v-.976h2.352l.368-.368v-6.432l-.368-.368h-2.352v-.976h6.48v.976h-2.352zm9.572-1.2c1.184 0 2.144.448 2.88 1.344.752.896 1.12 2.048 1.12 3.44s-.368 2.544-1.12 3.44c-.736.896-1.696 1.344-2.88 1.344s-2.144-.448-2.896-1.344c-.736-.896-1.104-2.048-1.104-3.44s.368-2.544 1.104-3.44c.752-.896 1.712-1.344 2.896-1.344zm0 8.56c.88 0 1.584-.352 2.112-1.04.528-.688.784-1.6.784-2.736 0-1.136-.256-2.048-.784-2.736-.528-.688-1.232-1.04-2.112-1.04-.88 0-1.584.352-2.112 1.056-.528.688-.784 1.6-.784 2.72s.256 2.032.784 2.736c.528.688 1.232 1.04 2.112 1.04zM801.312 573.696c-.928 0-1.664.352-2.208 1.04-.544.688-.816 1.584-.816 2.704s.272 2.032.816 2.72c.544.688 1.28 1.024 2.208 1.024 1.024 0 1.792-.512 2.56-1.712l.848.672c-.88 1.424-1.952 2.08-3.408 2.08-1.2 0-2.192-.448-2.976-1.344-.768-.912-1.152-2.048-1.152-3.44s.384-2.528 1.152-3.424c.784-.912 1.776-1.36 2.976-1.36 1.456 0 2.512.64 3.408 2.064l-.848.688c-.752-1.2-1.536-1.712-2.56-1.712zm12.724.448h-.288l-1.68 5.104h-1.36l-1.696-5.104h-.272V582h-1.04v-9.12h1.984l1.568 4.928h.288l1.68-4.928h1.856V582h-1.04v-7.856zm7.204 7.104c1.616 0 2.512-1.056 2.512-3.056v-5.312h1.056v5.424c0 1.2-.336 2.16-.992 2.864-.656.704-1.504 1.056-2.576 1.056a3.63 3.63 0 0 1-2.112-.656c-.624-.448-1.04-1.024-1.248-1.728l.912-.592c.448 1.28 1.312 2 2.448 2zm13.62-8.368h1.008V582h-1.248l-4.496-7.504h-.336V582h-1.008v-9.12h1.504l4.224 7.072h.352v-7.072zm10.549 9.12-2.672-3.776h-2.208V582h-1.056v-9.12h3.344c2.352 0 3.6.944 3.6 2.672 0 1.392-.768 2.256-2.288 2.56v.32l2.544 3.568h-1.264zm-.08-6.448c0-1.136-.864-1.696-2.544-1.696h-1.888l-.368.368v3.024h2.256c1.68 0 2.544-.56 2.544-1.696zm11.06-2.672h1.184l-3.648 9.12h-1.344l-3.648-9.12h1.2l2.944 7.664h.368l2.944-7.664zm10.724 2.416c0 .784-.416 1.408-1.136 1.728v.288c.944.304 1.552 1.12 1.552 2.08 0 1.712-1.232 2.608-3.616 2.608h-3.296v-9.12h3.12c2.192 0 3.376.832 3.376 2.416zm-3.424-1.488h-1.648l-.368.368v2.64h2.016c1.6 0 2.384-.496 2.384-1.52 0-1.008-.784-1.488-2.384-1.488zm.192 3.904h-2.208v2.992l.368.368h1.84c1.728 0 2.608-.576 2.608-1.68s-.88-1.68-2.608-1.68zM921.072 581.216c1.52 0 2.528-.656 2.528-1.696 0-.752-.464-1.232-1.408-1.44l-2.288-.56c-1.776-.448-2.48-1.136-2.48-2.336 0-.752.304-1.36.928-1.824.624-.464 1.424-.704 2.4-.704 1.392 0 2.72.496 3.76 1.44l-.688.848c-.896-.88-1.936-1.312-3.136-1.312-1.328 0-2.192.592-2.192 1.504 0 .688.432 1.056 1.6 1.36l2.32.576c1.488.368 2.256 1.168 2.256 2.384 0 .816-.336 1.472-1.008 2-.672.512-1.536.768-2.592.768-1.6 0-3.152-.544-4.16-1.424l.624-.928a5.4 5.4 0 0 0 3.536 1.344zm14.404-8.336v.992h-3.184l-.368.368V582h-1.072v-7.76l-.368-.368H927.3v-.992h8.176zm6.372 8.336c1.488 0 2.496-1.04 2.496-2.624v-5.712h1.072v5.856c0 1.04-.336 1.872-1.008 2.528-.656.64-1.52.96-2.56.96s-1.888-.32-2.56-.96c-.656-.656-.992-1.488-.992-2.528v-5.856h1.056v5.728c0 1.552 1.024 2.608 2.496 2.608zm14.372-3.776c0 1.392-.448 2.496-1.328 3.328-.88.816-2.064 1.232-3.584 1.232h-2.4v-9.12h2.4c1.52 0 2.704.416 3.584 1.248.88.816 1.328 1.92 1.328 3.312zm-4.912-3.6h-.96l-.368.368v6.464l.368.368h.96c2.368 0 3.808-1.376 3.808-3.6s-1.44-3.6-3.808-3.6zm12.373.016-.368.368v6.432l.368.368h2.352V582h-6.48v-.976h2.352l.368-.368v-6.432l-.368-.368h-2.352v-.976h6.48v.976h-2.352zm9.572-1.2c1.184 0 2.144.448 2.88 1.344.752.896 1.12 2.048 1.12 3.44s-.368 2.544-1.12 3.44c-.736.896-1.696 1.344-2.88 1.344s-2.144-.448-2.896-1.344c-.736-.896-1.104-2.048-1.104-3.44s.368-2.544 1.104-3.44c.752-.896 1.712-1.344 2.896-1.344zm0 8.56c.88 0 1.584-.352 2.112-1.04.528-.688.784-1.6.784-2.736 0-1.136-.256-2.048-.784-2.736-.528-.688-1.232-1.04-2.112-1.04-.88 0-1.584.352-2.112 1.056-.528.688-.784 1.6-.784 2.72s.256 2.032.784 2.736c.528.688 1.232 1.04 2.112 1.04zM1111.31 573.696c-.93 0-1.66.352-2.21 1.04-.54.688-.81 1.584-.81 2.704s.27 2.032.81 2.72c.55.688 1.28 1.024 2.21 1.024 1.03 0 1.79-.512 2.56-1.712l.85.672c-.88 1.424-1.95 2.08-3.41 2.08-1.2 0-2.19-.448-2.97-1.344-.77-.912-1.16-2.048-1.16-3.44s.39-2.528 1.16-3.424c.78-.912 1.77-1.36 2.97-1.36 1.46 0 2.51.64 3.41 2.064l-.85.688c-.75-1.2-1.53-1.712-2.56-1.712zm12.73.448h-.29l-1.68 5.104h-1.36l-1.7-5.104h-.27V582h-1.04v-9.12h1.98l1.57 4.928h.29l1.68-4.928h1.86V582h-1.04v-7.856zm7.2 7.104c1.62 0 2.51-1.056 2.51-3.056v-5.312h1.06v5.424c0 1.2-.34 2.16-.99 2.864-.66.704-1.51 1.056-2.58 1.056-.78 0-1.49-.224-2.11-.656a3.183 3.183 0 0 1-1.25-1.728l.91-.592c.45 1.28 1.31 2 2.45 2zm13.62-8.368h1.01V582h-1.25l-4.5-7.504h-.33V582h-1.01v-9.12h1.5l4.23 7.072h.35v-7.072zm10.55 9.12-2.67-3.776h-2.21V582h-1.06v-9.12h3.35c2.35 0 3.6.944 3.6 2.672 0 1.392-.77 2.256-2.29 2.56v.32l2.54 3.568h-1.26zm-.08-6.448c0-1.136-.87-1.696-2.55-1.696h-1.88l-.37.368v3.024h2.25c1.68 0 2.55-.56 2.55-1.696zm11.06-2.672h1.18l-3.65 9.12h-1.34l-3.65-9.12h1.2l2.95 7.664h.36l2.95-7.664zm10.72 2.416c0 .784-.41 1.408-1.13 1.728v.288c.94.304 1.55 1.12 1.55 2.08 0 1.712-1.23 2.608-3.62 2.608h-3.29v-9.12h3.12c2.19 0 3.37.832 3.37 2.416zm-3.42-1.488h-1.65l-.37.368v2.64h2.02c1.6 0 2.38-.496 2.38-1.52 0-1.008-.78-1.488-2.38-1.488zm.19 3.904h-2.21v2.992l.37.368h1.84c1.73 0 2.61-.576 2.61-1.68s-.88-1.68-2.61-1.68zM1231.07 581.216c1.52 0 2.53-.656 2.53-1.696 0-.752-.46-1.232-1.41-1.44l-2.29-.56c-1.77-.448-2.48-1.136-2.48-2.336 0-.752.31-1.36.93-1.824.63-.464 1.43-.704 2.4-.704 1.39 0 2.72.496 3.76 1.44l-.69.848c-.89-.88-1.93-1.312-3.13-1.312-1.33 0-2.19.592-2.19 1.504 0 .688.43 1.056 1.6 1.36l2.32.576c1.48.368 2.25 1.168 2.25 2.384 0 .816-.33 1.472-1.01 2-.67.512-1.53.768-2.59.768-1.6 0-3.15-.544-4.16-1.424l.63-.928a5.397 5.397 0 0 0 3.53 1.344zm14.41-8.336v.992h-3.19l-.37.368V582h-1.07v-7.76l-.37-.368h-3.18v-.992h8.18zm6.37 8.336c1.49 0 2.49-1.04 2.49-2.624v-5.712h1.08v5.856c0 1.04-.34 1.872-1.01 2.528-.66.64-1.52.96-2.56.96s-1.89-.32-2.56-.96c-.66-.656-.99-1.488-.99-2.528v-5.856h1.05v5.728c0 1.552 1.03 2.608 2.5 2.608zm14.37-3.776c0 1.392-.45 2.496-1.33 3.328-.88.816-2.06 1.232-3.58 1.232h-2.4v-9.12h2.4c1.52 0 2.7.416 3.58 1.248.88.816 1.33 1.92 1.33 3.312zm-4.91-3.6h-.96l-.37.368v6.464l.37.368h.96c2.37 0 3.81-1.376 3.81-3.6s-1.44-3.6-3.81-3.6zm12.37.016-.37.368v6.432l.37.368h2.35V582h-6.48v-.976h2.35l.37-.368v-6.432l-.37-.368h-2.35v-.976h6.48v.976h-2.35zm9.57-1.2c1.19 0 2.15.448 2.88 1.344.75.896 1.12 2.048 1.12 3.44s-.37 2.544-1.12 3.44c-.73.896-1.69 1.344-2.88 1.344-1.18 0-2.14-.448-2.89-1.344-.74-.896-1.11-2.048-1.11-3.44s.37-2.544 1.11-3.44c.75-.896 1.71-1.344 2.89-1.344zm0 8.56c.88 0 1.59-.352 2.11-1.04.53-.688.79-1.6.79-2.736 0-1.136-.26-2.048-.79-2.736-.52-.688-1.23-1.04-2.11-1.04-.88 0-1.58.352-2.11 1.056-.53.688-.78 1.6-.78 2.72s.25 2.032.78 2.736c.53.688 1.23 1.04 2.11 1.04zM1421.31 573.696c-.93 0-1.66.352-2.21 1.04-.54.688-.81 1.584-.81 2.704s.27 2.032.81 2.72c.55.688 1.28 1.024 2.21 1.024 1.03 0 1.79-.512 2.56-1.712l.85.672c-.88 1.424-1.95 2.08-3.41 2.08-1.2 0-2.19-.448-2.97-1.344-.77-.912-1.16-2.048-1.16-3.44s.39-2.528 1.16-3.424c.78-.912 1.77-1.36 2.97-1.36 1.46 0 2.51.64 3.41 2.064l-.85.688c-.75-1.2-1.53-1.712-2.56-1.712zm12.73.448h-.29l-1.68 5.104h-1.36l-1.7-5.104h-.27V582h-1.04v-9.12h1.98l1.57 4.928h.29l1.68-4.928h1.86V582h-1.04v-7.856zm7.2 7.104c1.62 0 2.51-1.056 2.51-3.056v-5.312h1.06v5.424c0 1.2-.34 2.16-.99 2.864-.66.704-1.51 1.056-2.58 1.056-.78 0-1.49-.224-2.11-.656a3.183 3.183 0 0 1-1.25-1.728l.91-.592c.45 1.28 1.31 2 2.45 2zm13.62-8.368h1.01V582h-1.25l-4.5-7.504h-.33V582h-1.01v-9.12h1.5l4.23 7.072h.35v-7.072zm10.55 9.12-2.67-3.776h-2.21V582h-1.06v-9.12h3.35c2.35 0 3.6.944 3.6 2.672 0 1.392-.77 2.256-2.29 2.56v.32l2.54 3.568h-1.26zm-.08-6.448c0-1.136-.87-1.696-2.55-1.696h-1.88l-.37.368v3.024h2.25c1.68 0 2.55-.56 2.55-1.696zm11.06-2.672h1.18l-3.65 9.12h-1.34l-3.65-9.12h1.2l2.95 7.664h.36l2.95-7.664zm10.72 2.416c0 .784-.41 1.408-1.13 1.728v.288c.94.304 1.55 1.12 1.55 2.08 0 1.712-1.23 2.608-3.62 2.608h-3.29v-9.12h3.12c2.19 0 3.37.832 3.37 2.416zm-3.42-1.488h-1.65l-.37.368v2.64h2.02c1.6 0 2.38-.496 2.38-1.52 0-1.008-.78-1.488-2.38-1.488zm.19 3.904h-2.21v2.992l.37.368h1.84c1.73 0 2.61-.576 2.61-1.68s-.88-1.68-2.61-1.68zM13.312 758.696c-.928 0-1.664.352-2.208 1.04-.544.688-.816 1.584-.816 2.704s.272 2.032.816 2.72c.544.688 1.28 1.024 2.208 1.024 1.024 0 1.792-.512 2.56-1.712l.848.672c-.88 1.424-1.952 2.08-3.408 2.08-1.2 0-2.192-.448-2.976-1.344-.768-.912-1.152-2.048-1.152-3.44s.384-2.528 1.152-3.424c.784-.912 1.776-1.36 2.976-1.36 1.456 0 2.512.64 3.408 2.064l-.848.688c-.752-1.2-1.536-1.712-2.56-1.712zm12.724.448h-.288l-1.68 5.104h-1.36l-1.696-5.104h-.272V767H19.7v-9.12h1.984l1.568 4.928h.288l1.68-4.928h1.856V767h-1.04v-7.856zm7.204 7.104c1.616 0 2.512-1.056 2.512-3.056v-5.312h1.056v5.424c0 1.2-.336 2.16-.992 2.864-.656.704-1.504 1.056-2.576 1.056a3.63 3.63 0 0 1-2.112-.656c-.624-.448-1.04-1.024-1.248-1.728l.912-.592c.448 1.28 1.312 2 2.448 2zm13.62-8.368h1.008V767H46.62l-4.496-7.504h-.336V767H40.78v-9.12h1.504l4.224 7.072h.352v-7.072zM57.408 767l-2.672-3.776H52.53V767h-1.057v-9.12h3.344c2.352 0 3.6.944 3.6 2.672 0 1.392-.767 2.256-2.287 2.56v.32L58.672 767h-1.265zm-.08-6.448c0-1.136-.864-1.696-2.544-1.696h-1.887l-.368.368v3.024h2.255c1.68 0 2.544-.56 2.544-1.696zm11.06-2.672h1.185L65.925 767H64.58l-3.648-9.12h1.2l2.944 7.664h.368l2.944-7.664zm10.725 2.416c0 .784-.416 1.408-1.136 1.728v.288c.944.304 1.552 1.12 1.552 2.08 0 1.712-1.232 2.608-3.616 2.608h-3.296v-9.12h3.12c2.192 0 3.376.832 3.376 2.416zm-3.424-1.488H74.04l-.368.368v2.64h2.016c1.6 0 2.384-.496 2.384-1.52 0-1.008-.784-1.488-2.384-1.488zm.192 3.904h-2.208v2.992l.368.368h1.84c1.728 0 2.608-.576 2.608-1.68s-.88-1.68-2.608-1.68zM133.072 766.216c1.52 0 2.528-.656 2.528-1.696 0-.752-.464-1.232-1.408-1.44l-2.288-.56c-1.776-.448-2.48-1.136-2.48-2.336 0-.752.304-1.36.928-1.824.624-.464 1.424-.704 2.4-.704 1.392 0 2.72.496 3.76 1.44l-.688.848c-.896-.88-1.936-1.312-3.136-1.312-1.328 0-2.192.592-2.192 1.504 0 .688.432 1.056 1.6 1.36l2.32.576c1.488.368 2.256 1.168 2.256 2.384 0 .816-.336 1.472-1.008 2-.672.512-1.536.768-2.592.768-1.6 0-3.152-.544-4.16-1.424l.624-.928a5.4 5.4 0 0 0 3.536 1.344zm14.404-8.336v.992h-3.184l-.368.368V767h-1.072v-7.76l-.368-.368H139.3v-.992h8.176zm6.372 8.336c1.488 0 2.496-1.04 2.496-2.624v-5.712h1.072v5.856c0 1.04-.336 1.872-1.008 2.528-.656.64-1.52.96-2.56.96s-1.888-.32-2.56-.96c-.656-.656-.992-1.488-.992-2.528v-5.856h1.056v5.728c0 1.552 1.024 2.608 2.496 2.608zm14.372-3.776c0 1.392-.448 2.496-1.328 3.328-.88.816-2.064 1.232-3.584 1.232h-2.4v-9.12h2.4c1.52 0 2.704.416 3.584 1.248.88.816 1.328 1.92 1.328 3.312zm-4.912-3.6h-.96l-.368.368v6.464l.368.368h.96c2.368 0 3.808-1.376 3.808-3.6s-1.44-3.6-3.808-3.6zm12.373.016-.368.368v6.432l.368.368h2.352V767h-6.48v-.976h2.352l.368-.368v-6.432l-.368-.368h-2.352v-.976h6.48v.976h-2.352zm9.572-1.2c1.184 0 2.144.448 2.88 1.344.752.896 1.12 2.048 1.12 3.44s-.368 2.544-1.12 3.44c-.736.896-1.696 1.344-2.88 1.344s-2.144-.448-2.896-1.344c-.736-.896-1.104-2.048-1.104-3.44s.368-2.544 1.104-3.44c.752-.896 1.712-1.344 2.896-1.344zm0 8.56c.88 0 1.584-.352 2.112-1.04.528-.688.784-1.6.784-2.736 0-1.136-.256-2.048-.784-2.736-.528-.688-1.232-1.04-2.112-1.04-.88 0-1.584.352-2.112 1.056-.528.688-.784 1.6-.784 2.72s.256 2.032.784 2.736c.528.688 1.232 1.04 2.112 1.04zM323.312 758.696c-.928 0-1.664.352-2.208 1.04-.544.688-.816 1.584-.816 2.704s.272 2.032.816 2.72c.544.688 1.28 1.024 2.208 1.024 1.024 0 1.792-.512 2.56-1.712l.848.672c-.88 1.424-1.952 2.08-3.408 2.08-1.2 0-2.192-.448-2.976-1.344-.768-.912-1.152-2.048-1.152-3.44s.384-2.528 1.152-3.424c.784-.912 1.776-1.36 2.976-1.36 1.456 0 2.512.64 3.408 2.064l-.848.688c-.752-1.2-1.536-1.712-2.56-1.712zm12.724.448h-.288l-1.68 5.104h-1.36l-1.696-5.104h-.272V767h-1.04v-9.12h1.984l1.568 4.928h.288l1.68-4.928h1.856V767h-1.04v-7.856zm7.204 7.104c1.616 0 2.512-1.056 2.512-3.056v-5.312h1.056v5.424c0 1.2-.336 2.16-.992 2.864-.656.704-1.504 1.056-2.576 1.056a3.63 3.63 0 0 1-2.112-.656c-.624-.448-1.04-1.024-1.248-1.728l.912-.592c.448 1.28 1.312 2 2.448 2zm13.62-8.368h1.008V767h-1.248l-4.496-7.504h-.336V767h-1.008v-9.12h1.504l4.224 7.072h.352v-7.072zm10.549 9.12-2.672-3.776h-2.208V767h-1.056v-9.12h3.344c2.352 0 3.6.944 3.6 2.672 0 1.392-.768 2.256-2.288 2.56v.32l2.544 3.568h-1.264zm-.08-6.448c0-1.136-.864-1.696-2.544-1.696h-1.888l-.368.368v3.024h2.256c1.68 0 2.544-.56 2.544-1.696zm11.06-2.672h1.184l-3.648 9.12h-1.344l-3.648-9.12h1.2l2.944 7.664h.368l2.944-7.664zm10.724 2.416c0 .784-.416 1.408-1.136 1.728v.288c.944.304 1.552 1.12 1.552 2.08 0 1.712-1.232 2.608-3.616 2.608h-3.296v-9.12h3.12c2.192 0 3.376.832 3.376 2.416zm-3.424-1.488h-1.648l-.368.368v2.64h2.016c1.6 0 2.384-.496 2.384-1.52 0-1.008-.784-1.488-2.384-1.488zm.192 3.904h-2.208v2.992l.368.368h1.84c1.728 0 2.608-.576 2.608-1.68s-.88-1.68-2.608-1.68zM443.072 766.216c1.52 0 2.528-.656 2.528-1.696 0-.752-.464-1.232-1.408-1.44l-2.288-.56c-1.776-.448-2.48-1.136-2.48-2.336 0-.752.304-1.36.928-1.824.624-.464 1.424-.704 2.4-.704 1.392 0 2.72.496 3.76 1.44l-.688.848c-.896-.88-1.936-1.312-3.136-1.312-1.328 0-2.192.592-2.192 1.504 0 .688.432 1.056 1.6 1.36l2.32.576c1.488.368 2.256 1.168 2.256 2.384 0 .816-.336 1.472-1.008 2-.672.512-1.536.768-2.592.768-1.6 0-3.152-.544-4.16-1.424l.624-.928a5.4 5.4 0 0 0 3.536 1.344zm14.404-8.336v.992h-3.184l-.368.368V767h-1.072v-7.76l-.368-.368H449.3v-.992h8.176zm6.372 8.336c1.488 0 2.496-1.04 2.496-2.624v-5.712h1.072v5.856c0 1.04-.336 1.872-1.008 2.528-.656.64-1.52.96-2.56.96s-1.888-.32-2.56-.96c-.656-.656-.992-1.488-.992-2.528v-5.856h1.056v5.728c0 1.552 1.024 2.608 2.496 2.608zm14.372-3.776c0 1.392-.448 2.496-1.328 3.328-.88.816-2.064 1.232-3.584 1.232h-2.4v-9.12h2.4c1.52 0 2.704.416 3.584 1.248.88.816 1.328 1.92 1.328 3.312zm-4.912-3.6h-.96l-.368.368v6.464l.368.368h.96c2.368 0 3.808-1.376 3.808-3.6s-1.44-3.6-3.808-3.6zm12.373.016-.368.368v6.432l.368.368h2.352V767h-6.48v-.976h2.352l.368-.368v-6.432l-.368-.368h-2.352v-.976h6.48v.976h-2.352zm9.572-1.2c1.184 0 2.144.448 2.88 1.344.752.896 1.12 2.048 1.12 3.44s-.368 2.544-1.12 3.44c-.736.896-1.696 1.344-2.88 1.344s-2.144-.448-2.896-1.344c-.736-.896-1.104-2.048-1.104-3.44s.368-2.544 1.104-3.44c.752-.896 1.712-1.344 2.896-1.344zm0 8.56c.88 0 1.584-.352 2.112-1.04.528-.688.784-1.6.784-2.736 0-1.136-.256-2.048-.784-2.736-.528-.688-1.232-1.04-2.112-1.04-.88 0-1.584.352-2.112 1.056-.528.688-.784 1.6-.784 2.72s.256 2.032.784 2.736c.528.688 1.232 1.04 2.112 1.04zM633.312 758.696c-.928 0-1.664.352-2.208 1.04-.544.688-.816 1.584-.816 2.704s.272 2.032.816 2.72c.544.688 1.28 1.024 2.208 1.024 1.024 0 1.792-.512 2.56-1.712l.848.672c-.88 1.424-1.952 2.08-3.408 2.08-1.2 0-2.192-.448-2.976-1.344-.768-.912-1.152-2.048-1.152-3.44s.384-2.528 1.152-3.424c.784-.912 1.776-1.36 2.976-1.36 1.456 0 2.512.64 3.408 2.064l-.848.688c-.752-1.2-1.536-1.712-2.56-1.712zm12.724.448h-.288l-1.68 5.104h-1.36l-1.696-5.104h-.272V767h-1.04v-9.12h1.984l1.568 4.928h.288l1.68-4.928h1.856V767h-1.04v-7.856zm7.204 7.104c1.616 0 2.512-1.056 2.512-3.056v-5.312h1.056v5.424c0 1.2-.336 2.16-.992 2.864-.656.704-1.504 1.056-2.576 1.056a3.63 3.63 0 0 1-2.112-.656c-.624-.448-1.04-1.024-1.248-1.728l.912-.592c.448 1.28 1.312 2 2.448 2zm13.62-8.368h1.008V767h-1.248l-4.496-7.504h-.336V767h-1.008v-9.12h1.504l4.224 7.072h.352v-7.072zm10.549 9.12-2.672-3.776h-2.208V767h-1.056v-9.12h3.344c2.352 0 3.6.944 3.6 2.672 0 1.392-.768 2.256-2.288 2.56v.32l2.544 3.568h-1.264zm-.08-6.448c0-1.136-.864-1.696-2.544-1.696h-1.888l-.368.368v3.024h2.256c1.68 0 2.544-.56 2.544-1.696zm11.06-2.672h1.184l-3.648 9.12h-1.344l-3.648-9.12h1.2l2.944 7.664h.368l2.944-7.664zm10.724 2.416c0 .784-.416 1.408-1.136 1.728v.288c.944.304 1.552 1.12 1.552 2.08 0 1.712-1.232 2.608-3.616 2.608h-3.296v-9.12h3.12c2.192 0 3.376.832 3.376 2.416zm-3.424-1.488h-1.648l-.368.368v2.64h2.016c1.6 0 2.384-.496 2.384-1.52 0-1.008-.784-1.488-2.384-1.488zm.192 3.904h-2.208v2.992l.368.368h1.84c1.728 0 2.608-.576 2.608-1.68s-.88-1.68-2.608-1.68zM753.072 766.216c1.52 0 2.528-.656 2.528-1.696 0-.752-.464-1.232-1.408-1.44l-2.288-.56c-1.776-.448-2.48-1.136-2.48-2.336 0-.752.304-1.36.928-1.824.624-.464 1.424-.704 2.4-.704 1.392 0 2.72.496 3.76 1.44l-.688.848c-.896-.88-1.936-1.312-3.136-1.312-1.328 0-2.192.592-2.192 1.504 0 .688.432 1.056 1.6 1.36l2.32.576c1.488.368 2.256 1.168 2.256 2.384 0 .816-.336 1.472-1.008 2-.672.512-1.536.768-2.592.768-1.6 0-3.152-.544-4.16-1.424l.624-.928a5.4 5.4 0 0 0 3.536 1.344zm14.404-8.336v.992h-3.184l-.368.368V767h-1.072v-7.76l-.368-.368H759.3v-.992h8.176zm6.372 8.336c1.488 0 2.496-1.04 2.496-2.624v-5.712h1.072v5.856c0 1.04-.336 1.872-1.008 2.528-.656.64-1.52.96-2.56.96s-1.888-.32-2.56-.96c-.656-.656-.992-1.488-.992-2.528v-5.856h1.056v5.728c0 1.552 1.024 2.608 2.496 2.608zm14.372-3.776c0 1.392-.448 2.496-1.328 3.328-.88.816-2.064 1.232-3.584 1.232h-2.4v-9.12h2.4c1.52 0 2.704.416 3.584 1.248.88.816 1.328 1.92 1.328 3.312zm-4.912-3.6h-.96l-.368.368v6.464l.368.368h.96c2.368 0 3.808-1.376 3.808-3.6s-1.44-3.6-3.808-3.6zm12.373.016-.368.368v6.432l.368.368h2.352V767h-6.48v-.976h2.352l.368-.368v-6.432l-.368-.368h-2.352v-.976h6.48v.976h-2.352zm9.572-1.2c1.184 0 2.144.448 2.88 1.344.752.896 1.12 2.048 1.12 3.44s-.368 2.544-1.12 3.44c-.736.896-1.696 1.344-2.88 1.344s-2.144-.448-2.896-1.344c-.736-.896-1.104-2.048-1.104-3.44s.368-2.544 1.104-3.44c.752-.896 1.712-1.344 2.896-1.344zm0 8.56c.88 0 1.584-.352 2.112-1.04.528-.688.784-1.6.784-2.736 0-1.136-.256-2.048-.784-2.736-.528-.688-1.232-1.04-2.112-1.04-.88 0-1.584.352-2.112 1.056-.528.688-.784 1.6-.784 2.72s.256 2.032.784 2.736c.528.688 1.232 1.04 2.112 1.04zM943.312 758.696c-.928 0-1.664.352-2.208 1.04-.544.688-.816 1.584-.816 2.704s.272 2.032.816 2.72c.544.688 1.28 1.024 2.208 1.024 1.024 0 1.792-.512 2.56-1.712l.848.672c-.88 1.424-1.952 2.08-3.408 2.08-1.2 0-2.192-.448-2.976-1.344-.768-.912-1.152-2.048-1.152-3.44s.384-2.528 1.152-3.424c.784-.912 1.776-1.36 2.976-1.36 1.456 0 2.512.64 3.408 2.064l-.848.688c-.752-1.2-1.536-1.712-2.56-1.712zm12.724.448h-.288l-1.68 5.104h-1.36l-1.696-5.104h-.272V767h-1.04v-9.12h1.984l1.568 4.928h.288l1.68-4.928h1.856V767h-1.04v-7.856zm7.204 7.104c1.616 0 2.512-1.056 2.512-3.056v-5.312h1.056v5.424c0 1.2-.336 2.16-.992 2.864-.656.704-1.504 1.056-2.576 1.056a3.63 3.63 0 0 1-2.112-.656c-.624-.448-1.04-1.024-1.248-1.728l.912-.592c.448 1.28 1.312 2 2.448 2zm13.62-8.368h1.008V767h-1.248l-4.496-7.504h-.336V767h-1.008v-9.12h1.504l4.224 7.072h.352v-7.072zm10.549 9.12-2.672-3.776h-2.208V767h-1.056v-9.12h3.344c2.352 0 3.6.944 3.6 2.672 0 1.392-.768 2.256-2.288 2.56v.32l2.544 3.568h-1.264zm-.08-6.448c0-1.136-.864-1.696-2.544-1.696h-1.888l-.368.368v3.024h2.256c1.68 0 2.544-.56 2.544-1.696zm11.06-2.672h1.184l-3.648 9.12h-1.344l-3.648-9.12h1.2l2.944 7.664h.368l2.944-7.664zm10.721 2.416c0 .784-.41 1.408-1.13 1.728v.288c.94.304 1.55 1.12 1.55 2.08 0 1.712-1.23 2.608-3.62 2.608h-3.29v-9.12h3.12c2.19 0 3.37.832 3.37 2.416zm-3.42-1.488h-1.65l-.37.368v2.64h2.02c1.6 0 2.38-.496 2.38-1.52 0-1.008-.78-1.488-2.38-1.488zm.19 3.904h-2.21v2.992l.37.368h1.84c1.73 0 2.61-.576 2.61-1.68s-.88-1.68-2.61-1.68zM1063.07 766.216c1.52 0 2.53-.656 2.53-1.696 0-.752-.46-1.232-1.41-1.44l-2.29-.56c-1.77-.448-2.48-1.136-2.48-2.336 0-.752.31-1.36.93-1.824.63-.464 1.43-.704 2.4-.704 1.39 0 2.72.496 3.76 1.44l-.69.848c-.89-.88-1.93-1.312-3.13-1.312-1.33 0-2.19.592-2.19 1.504 0 .688.43 1.056 1.6 1.36l2.32.576c1.48.368 2.25 1.168 2.25 2.384 0 .816-.33 1.472-1.01 2-.67.512-1.53.768-2.59.768-1.6 0-3.15-.544-4.16-1.424l.63-.928a5.397 5.397 0 0 0 3.53 1.344zm14.41-8.336v.992h-3.19l-.37.368V767h-1.07v-7.76l-.37-.368h-3.18v-.992h8.18zm6.37 8.336c1.49 0 2.49-1.04 2.49-2.624v-5.712h1.08v5.856c0 1.04-.34 1.872-1.01 2.528-.66.64-1.52.96-2.56.96s-1.89-.32-2.56-.96c-.66-.656-.99-1.488-.99-2.528v-5.856h1.05v5.728c0 1.552 1.03 2.608 2.5 2.608zm14.37-3.776c0 1.392-.45 2.496-1.33 3.328-.88.816-2.06 1.232-3.58 1.232h-2.4v-9.12h2.4c1.52 0 2.7.416 3.58 1.248.88.816 1.33 1.92 1.33 3.312zm-4.91-3.6h-.96l-.37.368v6.464l.37.368h.96c2.37 0 3.81-1.376 3.81-3.6s-1.44-3.6-3.81-3.6zm12.37.016-.37.368v6.432l.37.368h2.35V767h-6.48v-.976h2.35l.37-.368v-6.432l-.37-.368h-2.35v-.976h6.48v.976h-2.35zm9.57-1.2c1.19 0 2.15.448 2.88 1.344.75.896 1.12 2.048 1.12 3.44s-.37 2.544-1.12 3.44c-.73.896-1.69 1.344-2.88 1.344-1.18 0-2.14-.448-2.89-1.344-.74-.896-1.11-2.048-1.11-3.44s.37-2.544 1.11-3.44c.75-.896 1.71-1.344 2.89-1.344zm0 8.56c.88 0 1.59-.352 2.11-1.04.53-.688.79-1.6.79-2.736 0-1.136-.26-2.048-.79-2.736-.52-.688-1.23-1.04-2.11-1.04-.88 0-1.58.352-2.11 1.056-.53.688-.78 1.6-.78 2.72s.25 2.032.78 2.736c.53.688 1.23 1.04 2.11 1.04zM1253.31 758.696c-.93 0-1.66.352-2.21 1.04-.54.688-.81 1.584-.81 2.704s.27 2.032.81 2.72c.55.688 1.28 1.024 2.21 1.024 1.03 0 1.79-.512 2.56-1.712l.85.672c-.88 1.424-1.95 2.08-3.41 2.08-1.2 0-2.19-.448-2.97-1.344-.77-.912-1.16-2.048-1.16-3.44s.39-2.528 1.16-3.424c.78-.912 1.77-1.36 2.97-1.36 1.46 0 2.51.64 3.41 2.064l-.85.688c-.75-1.2-1.53-1.712-2.56-1.712zm12.73.448h-.29l-1.68 5.104h-1.36l-1.7-5.104h-.27V767h-1.04v-9.12h1.98l1.57 4.928h.29l1.68-4.928h1.86V767h-1.04v-7.856zm7.2 7.104c1.62 0 2.51-1.056 2.51-3.056v-5.312h1.06v5.424c0 1.2-.34 2.16-.99 2.864-.66.704-1.51 1.056-2.58 1.056-.78 0-1.49-.224-2.11-.656a3.183 3.183 0 0 1-1.25-1.728l.91-.592c.45 1.28 1.31 2 2.45 2zm13.62-8.368h1.01V767h-1.25l-4.5-7.504h-.33V767h-1.01v-9.12h1.5l4.23 7.072h.35v-7.072zm10.55 9.12-2.67-3.776h-2.21V767h-1.06v-9.12h3.35c2.35 0 3.6.944 3.6 2.672 0 1.392-.77 2.256-2.29 2.56v.32l2.54 3.568h-1.26zm-.08-6.448c0-1.136-.87-1.696-2.55-1.696h-1.88l-.37.368v3.024h2.25c1.68 0 2.55-.56 2.55-1.696zm11.06-2.672h1.18l-3.65 9.12h-1.34l-3.65-9.12h1.2l2.95 7.664h.36l2.95-7.664zm10.72 2.416c0 .784-.41 1.408-1.13 1.728v.288c.94.304 1.55 1.12 1.55 2.08 0 1.712-1.23 2.608-3.62 2.608h-3.29v-9.12h3.12c2.19 0 3.37.832 3.37 2.416zm-3.42-1.488h-1.65l-.37.368v2.64h2.02c1.6 0 2.38-.496 2.38-1.52 0-1.008-.78-1.488-2.38-1.488zm.19 3.904h-2.21v2.992l.37.368h1.84c1.73 0 2.61-.576 2.61-1.68s-.88-1.68-2.61-1.68zM1373.07 766.216c1.52 0 2.53-.656 2.53-1.696 0-.752-.46-1.232-1.41-1.44l-2.29-.56c-1.77-.448-2.48-1.136-2.48-2.336 0-.752.31-1.36.93-1.824.63-.464 1.43-.704 2.4-.704 1.39 0 2.72.496 3.76 1.44l-.69.848c-.89-.88-1.93-1.312-3.13-1.312-1.33 0-2.19.592-2.19 1.504 0 .688.43 1.056 1.6 1.36l2.32.576c1.48.368 2.25 1.168 2.25 2.384 0 .816-.33 1.472-1.01 2-.67.512-1.53.768-2.59.768-1.6 0-3.15-.544-4.16-1.424l.63-.928a5.397 5.397 0 0 0 3.53 1.344zm14.41-8.336v.992h-3.19l-.37.368V767h-1.07v-7.76l-.37-.368h-3.18v-.992h8.18zm6.37 8.336c1.49 0 2.49-1.04 2.49-2.624v-5.712h1.08v5.856c0 1.04-.34 1.872-1.01 2.528-.66.64-1.52.96-2.56.96s-1.89-.32-2.56-.96c-.66-.656-.99-1.488-.99-2.528v-5.856h1.05v5.728c0 1.552 1.03 2.608 2.5 2.608zm14.37-3.776c0 1.392-.45 2.496-1.33 3.328-.88.816-2.06 1.232-3.58 1.232h-2.4v-9.12h2.4c1.52 0 2.7.416 3.58 1.248.88.816 1.33 1.92 1.33 3.312zm-4.91-3.6h-.96l-.37.368v6.464l.37.368h.96c2.37 0 3.81-1.376 3.81-3.6s-1.44-3.6-3.81-3.6zm12.37.016-.37.368v6.432l.37.368h2.35V767h-6.48v-.976h2.35l.37-.368v-6.432l-.37-.368h-2.35v-.976h6.48v.976h-2.35zm9.57-1.2c1.19 0 2.15.448 2.88 1.344.75.896 1.12 2.048 1.12 3.44s-.37 2.544-1.12 3.44c-.73.896-1.69 1.344-2.88 1.344-1.18 0-2.14-.448-2.89-1.344-.74-.896-1.11-2.048-1.11-3.44s.37-2.544 1.11-3.44c.75-.896 1.71-1.344 2.89-1.344zm0 8.56c.88 0 1.59-.352 2.11-1.04.53-.688.79-1.6.79-2.736 0-1.136-.26-2.048-.79-2.736-.52-.688-1.23-1.04-2.11-1.04-.88 0-1.58.352-2.11 1.056-.53.688-.78 1.6-.78 2.72s.25 2.032.78 2.736c.53.688 1.23 1.04 2.11 1.04zM-8.928 211.216c1.52 0 2.528-.656 2.528-1.696 0-.752-.464-1.232-1.408-1.44l-2.288-.56c-1.776-.448-2.48-1.136-2.48-2.336 0-.752.304-1.36.928-1.824.624-.464 1.424-.704 2.4-.704 1.392 0 2.72.496 3.76 1.44l-.688.848c-.896-.88-1.936-1.312-3.136-1.312-1.328 0-2.192.592-2.192 1.504 0 .688.432 1.056 1.6 1.36l2.32.576c1.488.368 2.256 1.168 2.256 2.384 0 .816-.336 1.472-1.008 2-.672.512-1.536.768-2.592.768-1.6 0-3.152-.544-4.16-1.424l.624-.928a5.4 5.4 0 0 0 3.536 1.344zm14.404-8.336v.992H2.292l-.368.368V212H.852v-7.76l-.368-.368H-2.7v-.992h8.176zm6.372 8.336c1.488 0 2.496-1.04 2.496-2.624v-5.712h1.072v5.856c0 1.04-.336 1.872-1.008 2.528-.656.64-1.52.96-2.56.96s-1.888-.32-2.56-.96c-.656-.656-.992-1.488-.992-2.528v-5.856h1.056v5.728c0 1.552 1.024 2.608 2.496 2.608zm14.372-3.776c0 1.392-.448 2.496-1.328 3.328-.88.816-2.064 1.232-3.584 1.232h-2.4v-9.12h2.4c1.52 0 2.704.416 3.584 1.248.88.816 1.328 1.92 1.328 3.312zm-4.912-3.6h-.96l-.368.368v6.464l.368.368h.96c2.368 0 3.808-1.376 3.808-3.6s-1.44-3.6-3.808-3.6zm12.373.016-.368.368v6.432l.367.368h2.352V212h-6.48v-.976h2.352l.369-.368v-6.432l-.369-.368h-2.352v-.976h6.48v.976h-2.351zm9.572-1.2c1.184 0 2.144.448 2.88 1.344.752.896 1.12 2.048 1.12 3.44s-.368 2.544-1.12 3.44c-.736.896-1.696 1.344-2.88 1.344s-2.144-.448-2.896-1.344c-.736-.896-1.104-2.048-1.104-3.44s.368-2.544 1.104-3.44c.752-.896 1.712-1.344 2.896-1.344zm0 8.56c.88 0 1.584-.352 2.112-1.04.528-.688.784-1.6.784-2.736 0-1.136-.256-2.048-.784-2.736-.528-.688-1.232-1.04-2.112-1.04-.88 0-1.584.352-2.112 1.056-.528.688-.784 1.6-.784 2.72s.256 2.032.784 2.736c.528.688 1.232 1.04 2.112 1.04z" fill="#fff"/></g><defs><clipPath id="a"><path fill="#fff" d="M0 0h1440v780H0z"/></clipPath></defs></svg>